<?xml version="1.0" standalone="no"?>
<!DOCTYPE svg PUBLIC "-//W3C//DTD SVG 20010904//EN"
 "http://www.w3.org/TR/2001/REC-SVG-20010904/DTD/svg10.dtd">
<svg version="1.0" xmlns="http://www.w3.org/2000/svg"
 width="1280.000000pt" height="640.000000pt" viewBox="0 0 1280.000000 640.000000"
 preserveAspectRatio="xMidYMid meet">
<g transform="translate(0.000000,640.000000) scale(0.100000,-0.100000)"
fill="#034a99" stroke="none">
<path d="M0 6289 l0 -109 39 0 c179 0 395 -73 567 -191 102 -71 280 -256 271
-283 -2 -5 -45 -27 -95 -48 l-92 -38 -67 71 c-142 151 -318 242 -516 269 -43
5 -85 10 -93 10 -11 0 -14 -21 -14 -105 0 -118 -9 -107 95 -120 124 -16 273
-93 358 -184 26 -28 47 -54 47 -58 0 -7 -68 -69 -127 -117 -24 -18 -24 -18
-78 33 -64 60 -156 106 -238 119 l-57 9 0 -107 0 -108 43 -10 c61 -16 108 -51
136 -101 23 -41 23 -45 7 -77 l-16 -34 -85 6 -85 7 0 -112 0 -111 39 0 c179 0
395 -73 567 -191 102 -71 280 -256 271 -283 -2 -5 -45 -27 -95 -48 l-92 -38
-67 71 c-142 151 -318 242 -516 269 -43 5 -85 10 -93 10 -11 0 -14 -21 -14
-105 0 -118 -9 -107 95 -120 124 -16 273 -93 358 -184 26 -28 47 -54 47 -58 0
-7 -68 -69 -127 -117 -24 -18 -24 -18 -78 33 -64 60 -156 106 -237 119 l-58 9
0 -107 0 -108 43 -10 c61 -16 108 -51 136 -101 23 -41 23 -45 7 -77 l-16 -34
-85 6 -85 7 0 -112 0 -111 39 0 c179 0 395 -73 567 -191 102 -71 280 -256 271
-283 -2 -5 -45 -27 -95 -48 l-92 -38 -67 71 c-142 151 -318 242 -516 269 -43
5 -85 10 -93 10 -11 0 -14 -21 -14 -105 0 -118 -9 -107 95 -120 124 -16 273
-93 358 -184 26 -28 47 -54 47 -58 0 -7 -68 -69 -127 -117 -24 -18 -24 -18
-78 33 -64 60 -156 106 -237 119 l-58 9 0 -107 0 -108 43 -10 c61 -16 108 -51
136 -101 23 -41 23 -45 7 -77 l-16 -34 -85 6 -85 7 0 -112 0 -111 39 0 c179 0
395 -73 567 -191 102 -71 280 -256 271 -283 -2 -5 -45 -27 -95 -48 l-92 -38
-67 71 c-142 151 -318 242 -516 269 -43 5 -85 10 -93 10 -11 0 -14 -21 -14
-105 0 -118 -9 -107 95 -120 124 -16 273 -93 358 -184 26 -28 47 -54 47 -58 0
-7 -68 -69 -127 -117 -24 -18 -24 -18 -78 33 -64 60 -156 106 -237 119 l-58 9
0 -107 0 -108 43 -10 c61 -16 108 -51 136 -101 23 -41 23 -45 7 -77 l-16 -34
-85 6 -85 7 0 -112 0 -111 39 0 c179 0 395 -73 567 -191 102 -71 280 -256 271
-283 -2 -5 -45 -27 -95 -48 l-92 -38 -67 71 c-142 151 -318 242 -516 269 -43
5 -85 10 -93 10 -11 0 -14 -21 -14 -105 0 -118 -9 -107 95 -120 124 -16 273
-93 358 -184 26 -28 47 -54 47 -58 0 -7 -68 -69 -127 -117 -24 -18 -24 -18
-78 33 -64 60 -156 106 -237 119 l-58 9 0 -107 0 -108 43 -10 c59 -15 107 -50
134 -97 22 -39 23 -50 8 -87 -7 -17 3 -18 119 -18 l126 0 42 47 c168 187 349
294 598 355 35 8 114 13 215 12 141 0 172 -3 260 -27 120 -32 276 -107 365
-175 36 -27 100 -86 144 -131 l78 -81 124 0 c68 0 124 2 124 5 0 2 -5 15 -11
28 -9 19 -7 32 9 63 73 142 280 147 359 9 22 -39 23 -50 8 -87 -7 -17 3 -18
119 -18 l126 0 42 47 c168 187 349 294 598 355 35 8 114 13 215 12 141 0 172
-3 260 -27 120 -32 276 -107 365 -175 36 -27 100 -86 144 -131 l78 -81 124 0
c68 0 124 2 124 5 0 2 -5 15 -11 28 -19 41 27 114 91 147 104 53 223 21 277
-75 22 -39 23 -50 8 -87 -7 -17 3 -18 119 -18 l126 0 42 47 c174 191 348 294
598 355 35 8 114 13 215 12 141 0 172 -3 260 -27 120 -32 276 -107 365 -175
36 -27 100 -86 144 -131 l78 -81 125 0 c115 0 125 1 118 17 -15 38 -14 49 8
88 53 93 173 128 272 78 44 -22 65 -43 87 -87 16 -31 18 -44 9 -63 -6 -13 -11
-26 -11 -28 0 -3 56 -5 125 -5 l125 0 42 47 c174 191 348 294 598 355 35 8
114 13 215 12 141 0 172 -3 260 -27 120 -32 276 -107 365 -175 36 -27 100 -86
144 -131 l78 -81 124 0 c68 0 124 2 124 5 0 2 -5 15 -11 28 -9 19 -7 32 9 63
73 142 280 147 359 9 22 -39 23 -50 8 -87 -7 -17 3 -18 119 -18 l126 0 42 47
c174 191 348 294 598 355 35 8 114 13 215 12 141 0 172 -3 260 -27 120 -32
276 -107 365 -175 36 -27 100 -86 144 -131 l78 -81 125 0 c115 0 125 1 118 17
-15 38 -14 49 8 88 27 47 75 82 134 97 l43 10 0 108 0 107 -57 -9 c-82 -13
-174 -59 -238 -119 -54 -51 -54 -51 -78 -33 -66 53 -127 110 -127 119 0 15 97
107 153 145 66 44 150 77 233 90 38 7 79 14 92 16 21 4 22 8 22 109 0 122 11
115 -133 90 -189 -33 -324 -103 -466 -243 l-95 -92 -90 38 c-49 22 -92 44 -93
49 -5 13 82 118 151 183 110 105 259 194 396 238 77 25 225 52 286 52 l44 0 0
111 0 112 -85 -7 -85 -6 -16 34 c-16 32 -16 36 7 77 28 50 75 85 136 101 l43
10 0 108 0 107 -57 -9 c-82 -13 -174 -59 -238 -119 -54 -51 -54 -51 -78 -33
-66 53 -127 110 -127 119 0 15 97 107 153 145 66 44 150 77 233 90 38 7 79 14
92 16 21 4 22 8 22 109 0 122 11 115 -133 90 -189 -33 -324 -103 -466 -243
l-95 -92 -90 38 c-49 22 -92 44 -93 49 -5 13 82 118 151 183 110 105 259 194
396 238 77 25 225 52 286 52 l44 0 0 111 0 112 -85 -7 -85 -6 -16 34 c-16 32
-16 36 7 77 28 50 75 85 136 101 l43 10 0 108 0 107 -57 -9 c-82 -13 -174 -59
-238 -119 -54 -51 -54 -51 -78 -33 -66 53 -127 110 -127 119 0 15 97 107 153
145 66 44 150 77 233 90 38 7 79 14 92 16 21 4 22 8 22 109 0 122 11 115 -133
90 -189 -33 -324 -103 -466 -243 l-95 -92 -90 38 c-49 22 -92 44 -93 49 -5 13
82 118 151 183 110 105 259 194 396 238 77 25 225 52 286 52 l44 0 0 111 0
112 -85 -7 -85 -6 -16 34 c-16 32 -16 36 7 77 28 50 75 85 136 101 l43 10 0
108 0 107 -57 -9 c-82 -13 -174 -59 -238 -119 -54 -51 -54 -51 -78 -33 -66 53
-127 110 -127 119 0 15 97 107 153 145 66 44 150 77 233 90 38 7 79 14 92 16
21 4 22 8 22 109 0 122 11 115 -133 90 -189 -33 -324 -103 -466 -243 l-95 -92
-90 38 c-49 22 -92 44 -93 49 -5 13 82 118 151 183 110 105 259 194 396 238
77 25 225 52 286 52 l44 0 0 111 0 112 -85 -7 -85 -6 -16 34 c-16 32 -16 36 7
77 28 50 75 85 136 101 l43 10 0 108 0 107 -57 -9 c-82 -13 -174 -59 -238
-119 -54 -51 -54 -51 -78 -33 -66 53 -127 110 -127 119 0 15 97 107 153 145
66 44 150 77 233 90 38 7 79 14 92 16 21 4 22 8 22 109 0 122 11 115 -133 90
-189 -33 -324 -103 -466 -243 l-95 -92 -90 38 c-49 22 -92 44 -93 49 -5 13 82
118 151 183 110 105 259 194 396 238 77 25 225 52 286 52 l44 0 0 109 0 108
-215 2 -215 1 16 -26 c21 -31 18 -34 -76 -74 -41 -17 -80 -34 -86 -36 -6 -3
-42 27 -79 66 l-69 70 -557 0 -557 0 -66 -71 -67 -70 -87 37 c-48 20 -91 40
-96 45 -5 5 -2 18 7 33 l16 24 -429 0 -429 0 16 -24 c20 -31 17 -34 -77 -74
-41 -17 -80 -34 -87 -36 -6 -3 -42 26 -79 65 l-67 71 -557 0 -558 0 -66 -71
-67 -70 -87 37 c-48 20 -91 40 -96 45 -5 5 -2 18 7 33 l16 24 -429 0 -429 0
16 -24 c20 -31 17 -34 -77 -74 -41 -17 -80 -34 -87 -36 -6 -3 -42 26 -79 65
l-67 71 -557 0 -558 0 -66 -71 -67 -70 -87 37 c-48 20 -91 40 -96 45 -5 5 -2
18 7 33 l16 24 -429 0 -429 0 16 -24 c20 -31 17 -34 -77 -74 -41 -17 -80 -34
-87 -36 -6 -3 -42 26 -79 65 l-67 71 -557 0 -558 0 -66 -71 -67 -70 -87 37
c-48 20 -91 40 -96 45 -5 5 -2 18 7 33 l16 24 -429 0 -429 0 16 -24 c20 -31
17 -34 -77 -74 -41 -17 -80 -34 -87 -36 -6 -3 -42 26 -79 65 l-67 71 -557 0
-558 0 -66 -71 -67 -70 -87 37 c-48 20 -91 40 -96 45 -5 5 -2 19 8 33 l16 26
-215 -1 -215 -2 0 -108z m1480 72 c87 -30 196 -99 253 -160 26 -28 47 -54 47
-58 0 -7 -68 -69 -127 -117 -24 -18 -24 -18 -76 31 -102 95 -188 128 -322 121
-102 -5 -191 -44 -270 -118 -62 -59 -52 -61 -149 27 -66 58 -66 61 6 129 72
70 178 129 283 159 77 22 272 14 355 -14z m2560 0 c87 -30 196 -99 253 -160
26 -28 47 -54 47 -58 0 -7 -68 -69 -127 -117 -24 -18 -24 -18 -76 31 -102 95
-188 128 -322 121 -102 -5 -191 -44 -270 -118 -62 -59 -52 -61 -149 27 -66 58
-66 61 6 129 72 70 178 129 283 159 77 22 272 14 355 -14z m2560 0 c87 -30
196 -99 253 -160 26 -28 47 -54 47 -58 0 -7 -68 -69 -127 -117 -24 -18 -24
-18 -76 31 -102 95 -188 128 -322 121 -102 -5 -191 -44 -270 -118 -62 -59 -52
-61 -149 27 -66 58 -66 61 6 129 72 70 178 129 283 159 77 22 272 14 355 -14z
m2560 0 c87 -30 196 -99 253 -160 26 -28 47 -54 47 -58 0 -7 -68 -69 -127
-117 -24 -18 -24 -18 -76 31 -102 95 -188 128 -322 121 -102 -5 -191 -44 -270
-118 -62 -59 -52 -61 -149 27 -66 58 -66 61 6 129 72 70 178 129 283 159 77
22 272 14 355 -14z m2560 0 c36 -13 92 -39 125 -59 64 -38 175 -138 175 -156
0 -10 -60 -66 -127 -120 -24 -18 -24 -18 -76 31 -102 95 -188 128 -322 121
-102 -5 -191 -44 -270 -118 -62 -59 -52 -61 -149 27 -66 58 -66 61 6 129 72
70 178 129 283 159 77 22 272 14 355 -14z m-9004 -192 c154 -21 310 -84 450
-180 102 -71 280 -256 271 -283 -2 -5 -45 -27 -95 -48 l-92 -38 -67 71 c-150
159 -326 247 -542 271 -260 28 -513 -69 -704 -272 l-68 -71 -91 39 c-51 21
-94 44 -95 49 -5 13 82 118 151 183 235 223 556 325 882 279z m2560 0 c154
-21 310 -84 450 -180 102 -71 280 -256 271 -283 -2 -5 -45 -27 -95 -48 l-92
-38 -67 71 c-192 203 -465 305 -720 270 -202 -28 -354 -103 -502 -249 l-95
-92 -90 38 c-49 22 -92 44 -93 49 -5 13 82 118 151 183 235 223 556 325 882
279z m2560 0 c154 -21 310 -84 450 -180 102 -71 280 -256 271 -283 -2 -5 -45
-27 -95 -48 l-92 -38 -67 71 c-192 203 -465 305 -720 270 -202 -28 -354 -103
-502 -249 l-95 -92 -90 38 c-49 22 -92 44 -93 49 -5 13 82 118 151 183 235
223 556 325 882 279z m2560 0 c154 -21 310 -84 450 -180 102 -71 280 -256 271
-283 -2 -5 -45 -27 -95 -48 l-92 -38 -67 71 c-192 203 -465 305 -720 270 -202
-28 -354 -103 -502 -249 l-95 -92 -90 38 c-49 22 -92 44 -93 49 -5 13 82 118
151 183 235 223 556 325 882 279z m-9023 -225 c46 -23 66 -44 89 -88 19 -38
20 -42 4 -70 l-16 -31 -170 0 -170 0 -16 31 c-16 30 -16 33 7 74 54 97 173
134 272 84z m2560 0 c46 -23 66 -44 89 -88 19 -38 20 -42 4 -70 l-16 -31 -170
0 -170 0 -16 31 c-16 30 -16 33 7 74 54 97 173 134 272 84z m2560 0 c46 -23
66 -44 89 -88 19 -38 20 -42 4 -70 l-16 -31 -170 0 -170 0 -16 31 c-16 30 -16
33 7 74 54 97 173 134 272 84z m2560 0 c46 -23 66 -44 89 -88 19 -38 20 -42 4
-70 l-16 -31 -170 0 -170 0 -16 31 c-16 30 -16 33 7 74 54 97 173 134 272 84z
m2560 0 c46 -23 66 -44 89 -88 19 -38 20 -42 4 -70 l-16 -31 -170 0 -170 0
-16 31 c-16 30 -16 33 7 74 54 97 173 134 272 84z m-8923 -206 c75 -14 138
-40 214 -88 59 -37 156 -129 156 -147 0 -7 -68 -69 -127 -117 -24 -18 -24 -18
-78 33 -97 92 -233 138 -352 119 -82 -13 -174 -59 -238 -119 -54 -51 -54 -51
-78 -33 -66 53 -127 110 -127 119 0 18 102 111 167 153 68 43 166 78 258 91
63 9 114 6 205 -11z m2560 0 c75 -14 138 -40 214 -88 59 -37 156 -129 156
-147 0 -7 -68 -69 -127 -117 -24 -18 -24 -18 -78 33 -97 92 -233 138 -352 119
-82 -13 -174 -59 -238 -119 -54 -51 -54 -51 -78 -33 -66 53 -127 110 -127 119
0 18 102 111 167 153 68 43 166 78 258 91 63 9 114 6 205 -11z m2560 0 c75
-14 138 -40 214 -88 59 -37 156 -129 156 -147 0 -7 -68 -69 -127 -117 -24 -18
-24 -18 -78 33 -64 60 -156 106 -237 119 -120 19 -256 -27 -353 -119 -54 -51
-54 -51 -78 -33 -66 53 -127 110 -127 119 0 18 102 111 167 153 68 43 166 78
258 91 63 9 114 6 205 -11z m2560 0 c75 -14 138 -40 214 -88 59 -37 156 -129
156 -147 0 -7 -68 -69 -127 -117 -24 -18 -24 -18 -78 33 -97 92 -233 138 -352
119 -82 -13 -174 -59 -238 -119 -54 -51 -54 -51 -78 -33 -66 53 -127 110 -127
119 0 18 102 111 167 153 68 43 166 78 258 91 63 9 114 6 205 -11z m-8820
-233 c183 -49 323 -130 466 -268 101 -96 153 -163 138 -176 -5 -5 -43 -23 -84
-41 -41 -17 -80 -34 -87 -36 -6 -3 -44 29 -85 71 -169 178 -379 269 -618 269
-239 0 -450 -91 -618 -268 l-73 -77 -87 37 c-48 20 -91 40 -96 45 -23 20 140
198 258 281 148 104 279 156 486 192 14 3 88 3 165 1 110 -3 161 -10 235 -30z
m2560 0 c183 -49 323 -130 466 -268 101 -96 153 -163 138 -176 -5 -5 -43 -23
-84 -41 -41 -17 -80 -34 -87 -36 -6 -3 -44 29 -85 71 -169 178 -379 269 -618
269 -239 0 -450 -91 -618 -268 l-73 -77 -87 37 c-48 20 -91 40 -96 45 -23 20
140 198 258 281 148 104 279 156 486 192 14 3 88 3 165 1 110 -3 161 -10 235
-30z m2560 0 c183 -49 323 -130 466 -268 101 -96 153 -163 138 -176 -5 -5 -43
-23 -84 -41 -41 -17 -80 -34 -87 -36 -6 -3 -44 29 -85 71 -169 178 -379 269
-618 269 -239 0 -450 -91 -618 -268 l-73 -77 -87 37 c-48 20 -91 40 -96 45
-22 20 143 200 259 281 147 104 279 156 485 192 14 3 88 3 165 1 110 -3 161
-10 235 -30z m2560 0 c183 -49 323 -130 466 -268 101 -96 153 -163 138 -176
-5 -5 -43 -23 -84 -41 -41 -17 -80 -34 -87 -36 -6 -3 -44 29 -85 71 -169 178
-379 269 -618 269 -239 0 -450 -91 -618 -268 l-73 -77 -87 37 c-48 20 -91 40
-96 45 -22 20 143 200 259 281 147 104 279 156 485 192 14 3 88 3 165 1 110
-3 161 -10 235 -30z m2560 0 c183 -49 323 -130 466 -268 101 -96 153 -163 138
-176 -5 -5 -43 -23 -84 -41 -41 -17 -80 -34 -86 -36 -6 -3 -44 30 -85 72 -173
178 -380 268 -619 268 -239 0 -450 -91 -618 -268 l-73 -77 -87 37 c-48 20 -91
40 -96 45 -22 20 143 200 259 281 147 104 279 156 485 192 14 3 88 3 165 1
110 -3 161 -10 235 -30z m-9131 -205 c43 -21 71 -53 90 -99 10 -24 10 -34 -2
-57 l-14 -27 -173 -1 -173 -1 -15 31 c-14 30 -13 35 9 75 56 99 173 133 278
79z m2560 0 c43 -21 71 -53 90 -99 10 -24 10 -34 -2 -57 l-14 -27 -173 -1
-173 -1 -15 31 c-14 30 -13 35 9 75 56 99 173 133 278 79z m2560 0 c43 -21 71
-53 90 -99 10 -24 10 -34 -2 -57 l-14 -27 -173 -1 -173 -1 -15 31 c-14 30 -13
35 9 75 56 99 173 133 278 79z m2560 0 c43 -21 71 -53 90 -99 10 -24 10 -34
-2 -57 l-14 -27 -173 -1 -173 -1 -15 31 c-14 30 -13 35 9 75 56 99 173 133
278 79z m-8859 -219 c87 -30 196 -99 253 -160 26 -28 47 -54 47 -58 0 -7 -68
-69 -127 -117 -24 -18 -24 -18 -76 31 -102 95 -188 128 -322 121 -102 -5 -191
-44 -270 -118 -62 -59 -52 -61 -149 27 -66 58 -66 61 6 129 72 70 178 129 283
159 77 22 272 14 355 -14z m2560 0 c87 -30 196 -99 253 -160 26 -28 47 -54 47
-58 0 -7 -68 -69 -127 -117 -24 -18 -24 -18 -76 31 -102 95 -188 128 -322 121
-102 -5 -191 -44 -270 -118 -62 -59 -52 -61 -149 27 -66 58 -66 61 6 129 72
70 178 129 283 159 77 22 272 14 355 -14z m2560 0 c87 -30 196 -99 253 -160
26 -28 47 -54 47 -58 0 -7 -68 -69 -127 -117 -24 -18 -24 -18 -76 31 -102 95
-188 128 -322 121 -102 -5 -191 -44 -270 -118 -62 -59 -52 -61 -149 27 -66 58
-66 61 6 129 72 70 178 129 283 159 77 22 272 14 355 -14z m2560 0 c87 -30
196 -99 253 -160 26 -28 47 -54 47 -58 0 -7 -68 -69 -127 -117 -24 -18 -24
-18 -76 31 -102 95 -188 128 -322 121 -102 -5 -191 -44 -270 -118 -62 -59 -52
-61 -149 27 -66 58 -66 61 6 129 72 70 178 129 283 159 77 22 272 14 355 -14z
m2560 0 c36 -13 92 -39 125 -59 64 -38 175 -138 175 -156 0 -10 -60 -66 -127
-120 -24 -18 -24 -18 -76 31 -102 95 -188 128 -322 121 -102 -5 -191 -44 -270
-118 -62 -59 -52 -61 -149 27 -66 58 -66 61 6 129 72 70 178 129 283 159 77
22 272 14 355 -14z m-9004 -192 c154 -21 310 -84 450 -180 102 -71 280 -256
271 -283 -2 -5 -45 -27 -95 -48 l-92 -38 -67 71 c-150 159 -326 247 -542 271
-260 28 -513 -69 -704 -272 l-68 -71 -91 39 c-51 21 -94 44 -95 49 -5 13 82
118 151 183 235 223 556 325 882 279z m2560 0 c154 -21 310 -84 450 -180 102
-71 280 -256 271 -283 -2 -5 -45 -27 -95 -48 l-92 -38 -67 71 c-192 203 -465
305 -720 270 -202 -28 -354 -103 -502 -249 l-95 -92 -90 38 c-49 22 -92 44
-93 49 -5 13 82 118 151 183 235 223 556 325 882 279z m2560 0 c154 -21 310
-84 450 -180 102 -71 280 -256 271 -283 -2 -5 -45 -27 -95 -48 l-92 -38 -67
71 c-192 203 -465 305 -720 270 -202 -28 -354 -103 -502 -249 l-95 -92 -90 38
c-49 22 -92 44 -93 49 -5 13 82 118 151 183 235 223 556 325 882 279z m2560 0
c154 -21 310 -84 450 -180 102 -71 280 -256 271 -283 -2 -5 -45 -27 -95 -48
l-92 -38 -67 71 c-192 203 -465 305 -720 270 -202 -28 -354 -103 -502 -249
l-95 -92 -90 38 c-49 22 -92 44 -93 49 -5 13 82 118 151 183 235 223 556 325
882 279z m-9023 -225 c46 -23 66 -44 89 -88 19 -38 20 -42 4 -70 l-16 -31
-170 0 -170 0 -16 31 c-16 30 -16 33 7 74 54 97 173 134 272 84z m2560 0 c46
-23 66 -44 89 -88 19 -38 20 -42 4 -70 l-16 -31 -170 0 -170 0 -16 31 c-16 30
-16 33 7 74 54 97 173 134 272 84z m2560 0 c46 -23 66 -44 89 -88 19 -38 20
-42 4 -70 l-16 -31 -170 0 -170 0 -16 31 c-16 30 -16 33 7 74 54 97 173 134
272 84z m2560 0 c46 -23 66 -44 89 -88 19 -38 20 -42 4 -70 l-16 -31 -170 0
-170 0 -16 31 c-16 30 -16 33 7 74 54 97 173 134 272 84z m2560 0 c46 -23 66
-44 89 -88 19 -38 20 -42 4 -70 l-16 -31 -170 0 -170 0 -16 31 c-16 30 -16 33
7 74 54 97 173 134 272 84z m-8923 -206 c75 -14 138 -40 214 -88 59 -37 156
-129 156 -147 0 -7 -68 -69 -127 -117 -24 -18 -24 -18 -78 33 -171 162 -419
162 -590 0 -54 -51 -54 -51 -78 -33 -66 53 -127 110 -127 119 0 18 102 111
167 153 68 43 166 78 258 91 63 9 114 6 205 -11z m2560 0 c75 -14 138 -40 214
-88 59 -37 156 -129 156 -147 0 -7 -68 -69 -127 -117 -24 -18 -24 -18 -78 33
-171 162 -419 162 -590 0 -54 -51 -54 -51 -78 -33 -66 53 -127 110 -127 119 0
18 102 111 167 153 68 43 166 78 258 91 63 9 114 6 205 -11z m2560 0 c75 -14
138 -40 214 -88 59 -37 156 -129 156 -147 0 -7 -68 -69 -127 -117 -24 -18 -24
-18 -78 33 -171 162 -419 162 -590 0 -54 -51 -54 -51 -78 -33 -66 53 -127 110
-127 119 0 18 102 111 167 153 68 43 166 78 258 91 63 9 114 6 205 -11z m2560
0 c75 -14 138 -40 214 -88 59 -37 156 -129 156 -147 0 -7 -68 -69 -127 -117
-24 -18 -24 -18 -78 33 -171 162 -419 162 -590 0 -54 -51 -54 -51 -78 -33 -66
53 -127 110 -127 119 0 18 102 111 167 153 68 43 166 78 258 91 63 9 114 6
205 -11z m-8820 -233 c183 -49 323 -130 466 -268 101 -96 153 -163 138 -176
-5 -5 -43 -23 -84 -41 -41 -17 -80 -34 -87 -36 -6 -3 -44 29 -85 71 -169 178
-379 269 -618 269 -239 0 -450 -91 -618 -268 l-73 -77 -87 37 c-48 20 -91 40
-96 45 -23 20 140 198 258 281 148 104 279 156 486 192 14 3 88 3 165 1 110
-3 161 -10 235 -30z m2560 0 c183 -49 323 -130 466 -268 101 -96 153 -163 138
-176 -5 -5 -43 -23 -84 -41 -41 -17 -80 -34 -87 -36 -6 -3 -44 29 -85 71 -169
178 -379 269 -618 269 -239 0 -450 -91 -618 -268 l-73 -77 -87 37 c-48 20 -91
40 -96 45 -23 20 140 198 258 281 148 104 279 156 486 192 14 3 88 3 165 1
110 -3 161 -10 235 -30z m2560 0 c183 -49 323 -130 466 -268 101 -96 153 -163
138 -176 -5 -5 -43 -23 -84 -41 -41 -17 -80 -34 -87 -36 -6 -3 -44 29 -85 71
-169 178 -379 269 -618 269 -239 0 -450 -91 -618 -268 l-73 -77 -87 37 c-48
20 -91 40 -96 45 -22 20 143 200 259 281 147 104 279 156 485 192 14 3 88 3
165 1 110 -3 161 -10 235 -30z m2560 0 c183 -49 323 -130 466 -268 101 -96
153 -163 138 -176 -5 -5 -43 -23 -84 -41 -41 -17 -80 -34 -87 -36 -6 -3 -44
29 -85 71 -169 178 -379 269 -618 269 -239 0 -450 -91 -618 -268 l-73 -77 -87
37 c-48 20 -91 40 -96 45 -22 20 143 200 259 281 147 104 279 156 485 192 14
3 88 3 165 1 110 -3 161 -10 235 -30z m2560 0 c183 -49 323 -130 466 -268 101
-96 153 -163 138 -176 -5 -5 -43 -23 -84 -41 -41 -17 -80 -34 -86 -36 -6 -3
-44 30 -85 72 -173 178 -380 268 -619 268 -239 0 -450 -91 -618 -268 l-73 -77
-87 37 c-48 20 -91 40 -96 45 -22 20 143 200 259 281 147 104 279 156 485 192
14 3 88 3 165 1 110 -3 161 -10 235 -30z m-9131 -205 c43 -21 71 -53 90 -99
10 -24 10 -34 -2 -57 l-14 -27 -173 -1 -173 -1 -15 31 c-14 30 -13 35 9 75 56
99 173 133 278 79z m2560 0 c43 -21 71 -53 90 -99 10 -24 10 -34 -2 -57 l-14
-27 -173 -1 -173 -1 -15 31 c-14 30 -13 35 9 75 56 99 173 133 278 79z m2560
0 c43 -21 71 -53 90 -99 10 -24 10 -34 -2 -57 l-14 -27 -173 -1 -173 -1 -15
31 c-14 30 -13 35 9 75 56 99 173 133 278 79z m2560 0 c43 -21 71 -53 90 -99
10 -24 10 -34 -2 -57 l-14 -27 -173 -1 -173 -1 -15 31 c-14 30 -13 35 9 75 56
99 173 133 278 79z m-8859 -219 c87 -30 196 -99 253 -160 26 -28 47 -54 47
-58 0 -7 -68 -69 -127 -117 -24 -18 -24 -18 -76 31 -102 95 -188 128 -322 121
-102 -5 -191 -44 -270 -118 -62 -59 -52 -61 -149 27 -66 58 -66 61 6 129 72
70 178 129 283 159 77 22 272 14 355 -14z m2560 0 c87 -30 196 -99 253 -160
26 -28 47 -54 47 -58 0 -7 -68 -69 -127 -117 -24 -18 -24 -18 -76 31 -102 95
-188 128 -322 121 -102 -5 -191 -44 -270 -118 -62 -59 -52 -61 -149 27 -66 58
-66 61 6 129 72 70 178 129 283 159 77 22 272 14 355 -14z m2560 0 c87 -30
196 -99 253 -160 26 -28 47 -54 47 -58 0 -7 -68 -69 -127 -117 -24 -18 -24
-18 -76 31 -102 95 -188 128 -322 121 -102 -5 -191 -44 -270 -118 -62 -59 -52
-61 -149 27 -66 58 -66 61 6 129 72 70 178 129 283 159 77 22 272 14 355 -14z
m2560 0 c87 -30 196 -99 253 -160 26 -28 47 -54 47 -58 0 -7 -68 -69 -127
-117 -24 -18 -24 -18 -76 31 -102 95 -188 128 -322 121 -102 -5 -191 -44 -270
-118 -62 -59 -52 -61 -149 27 -66 58 -66 61 6 129 72 70 178 129 283 159 77
22 272 14 355 -14z m2560 0 c36 -13 92 -39 125 -59 64 -38 175 -138 175 -156
0 -10 -60 -66 -127 -120 -24 -18 -24 -18 -76 31 -102 95 -188 128 -322 121
-102 -5 -191 -44 -270 -118 -62 -59 -52 -61 -149 27 -66 58 -66 61 6 129 72
70 178 129 283 159 77 22 272 14 355 -14z m-9004 -192 c154 -21 310 -84 450
-180 102 -71 280 -256 271 -283 -2 -5 -45 -27 -95 -48 l-92 -38 -67 71 c-150
159 -326 247 -542 271 -260 28 -513 -69 -704 -272 l-68 -71 -91 39 c-51 21
-94 44 -95 49 -5 13 82 118 151 183 235 223 556 325 882 279z m2560 0 c154
-21 310 -84 450 -180 102 -71 280 -256 271 -283 -2 -5 -45 -27 -95 -48 l-92
-38 -67 71 c-192 203 -465 305 -720 270 -202 -28 -354 -103 -502 -249 l-95
-92 -90 38 c-49 22 -92 44 -93 49 -5 13 82 118 151 183 235 223 556 325 882
279z m2560 0 c154 -21 310 -84 450 -180 102 -71 280 -256 271 -283 -2 -5 -45
-27 -95 -48 l-92 -38 -67 71 c-192 203 -465 305 -720 270 -202 -28 -354 -103
-502 -249 l-95 -92 -90 38 c-49 22 -92 44 -93 49 -5 13 82 118 151 183 235
223 556 325 882 279z m2560 0 c154 -21 310 -84 450 -180 102 -71 280 -256 271
-283 -2 -5 -45 -27 -95 -48 l-92 -38 -67 71 c-192 203 -465 305 -720 270 -202
-28 -354 -103 -502 -249 l-95 -92 -90 38 c-49 22 -92 44 -93 49 -5 13 82 118
151 183 235 223 556 325 882 279z m-9023 -225 c46 -23 66 -44 89 -88 19 -38
20 -42 4 -70 l-16 -31 -170 0 -170 0 -16 31 c-16 30 -16 33 7 74 54 97 173
134 272 84z m2560 0 c46 -23 66 -44 89 -88 19 -38 20 -42 4 -70 l-16 -31 -170
0 -170 0 -16 31 c-16 30 -16 33 7 74 54 97 173 134 272 84z m2560 0 c46 -23
66 -44 89 -88 19 -38 20 -42 4 -70 l-16 -31 -170 0 -170 0 -16 31 c-16 30 -16
33 7 74 54 97 173 134 272 84z m2560 0 c46 -23 66 -44 89 -88 19 -38 20 -42 4
-70 l-16 -31 -170 0 -170 0 -16 31 c-16 30 -16 33 7 74 54 97 173 134 272 84z
m2560 0 c46 -23 66 -44 89 -88 19 -38 20 -42 4 -70 l-16 -31 -170 0 -170 0
-16 31 c-16 30 -16 33 7 74 54 97 173 134 272 84z m-8923 -206 c75 -14 138
-40 214 -88 59 -37 156 -129 156 -147 0 -7 -68 -69 -127 -117 -24 -18 -24 -18
-78 33 -171 162 -419 162 -590 0 -54 -51 -54 -51 -78 -33 -66 53 -127 110
-127 119 0 18 102 111 167 153 68 43 166 78 258 91 63 9 114 6 205 -11z m2560
0 c75 -14 138 -40 214 -88 59 -37 156 -129 156 -147 0 -7 -68 -69 -127 -117
-24 -18 -24 -18 -78 33 -171 162 -419 162 -590 0 -54 -51 -54 -51 -78 -33 -66
53 -127 110 -127 119 0 18 102 111 167 153 68 43 166 78 258 91 63 9 114 6
205 -11z m2560 0 c75 -14 138 -40 214 -88 59 -37 156 -129 156 -147 0 -7 -68
-69 -127 -117 -24 -18 -24 -18 -78 33 -171 162 -419 162 -590 0 -54 -51 -54
-51 -78 -33 -66 53 -127 110 -127 119 0 18 102 111 167 153 68 43 166 78 258
91 63 9 114 6 205 -11z m2560 0 c75 -14 138 -40 214 -88 59 -37 156 -129 156
-147 0 -7 -68 -69 -127 -117 -24 -18 -24 -18 -78 33 -171 162 -419 162 -590 0
-54 -51 -54 -51 -78 -33 -66 53 -127 110 -127 119 0 18 102 111 167 153 68 43
166 78 258 91 63 9 114 6 205 -11z m-8820 -233 c183 -49 323 -130 466 -268
101 -96 153 -163 138 -176 -5 -5 -43 -23 -84 -41 -41 -17 -80 -34 -87 -36 -6
-3 -44 29 -85 71 -169 178 -379 269 -618 269 -239 0 -450 -91 -618 -268 l-73
-77 -87 37 c-48 20 -91 40 -96 45 -23 20 140 198 258 281 148 104 279 156 486
192 14 3 88 3 165 1 110 -3 161 -10 235 -30z m2560 0 c183 -49 323 -130 466
-268 101 -96 153 -163 138 -176 -5 -5 -43 -23 -84 -41 -41 -17 -80 -34 -87
-36 -6 -3 -44 29 -85 71 -169 178 -379 269 -618 269 -239 0 -450 -91 -618
-268 l-73 -77 -87 37 c-48 20 -91 40 -96 45 -23 20 140 198 258 281 148 104
279 156 486 192 14 3 88 3 165 1 110 -3 161 -10 235 -30z m2560 0 c183 -49
323 -130 466 -268 101 -96 153 -163 138 -176 -5 -5 -43 -23 -84 -41 -41 -17
-80 -34 -87 -36 -6 -3 -44 29 -85 71 -169 178 -379 269 -618 269 -239 0 -450
-91 -618 -268 l-73 -77 -87 37 c-48 20 -91 40 -96 45 -22 20 143 200 259 281
147 104 279 156 485 192 14 3 88 3 165 1 110 -3 161 -10 235 -30z m2560 0
c183 -49 323 -130 466 -268 101 -96 153 -163 138 -176 -5 -5 -43 -23 -84 -41
-41 -17 -80 -34 -87 -36 -6 -3 -44 29 -85 71 -169 178 -379 269 -618 269 -239
0 -450 -91 -618 -268 l-73 -77 -87 37 c-48 20 -91 40 -96 45 -22 20 143 200
259 281 147 104 279 156 485 192 14 3 88 3 165 1 110 -3 161 -10 235 -30z
m2560 0 c183 -49 323 -130 466 -268 101 -96 153 -163 138 -176 -5 -5 -43 -23
-84 -41 -41 -17 -80 -34 -86 -36 -6 -3 -44 30 -85 72 -173 178 -380 268 -619
268 -239 0 -450 -91 -618 -268 l-73 -77 -87 37 c-48 20 -91 40 -96 45 -22 20
143 200 259 281 147 104 279 156 485 192 14 3 88 3 165 1 110 -3 161 -10 235
-30z m-9131 -205 c43 -21 71 -53 90 -99 10 -24 10 -34 -2 -57 l-14 -27 -173
-1 -173 -1 -15 31 c-14 30 -13 35 9 75 56 99 173 133 278 79z m2560 0 c43 -21
71 -53 90 -99 10 -24 10 -34 -2 -57 l-14 -27 -173 -1 -173 -1 -15 31 c-14 30
-13 35 9 75 56 99 173 133 278 79z m2560 0 c43 -21 71 -53 90 -99 10 -24 10
-34 -2 -57 l-14 -27 -173 -1 -173 -1 -15 31 c-14 30 -13 35 9 75 56 99 173
133 278 79z m2560 0 c43 -21 71 -53 90 -99 10 -24 10 -34 -2 -57 l-14 -27
-173 -1 -173 -1 -15 31 c-14 30 -13 35 9 75 56 99 173 133 278 79z m-8859
-219 c87 -30 196 -99 253 -160 26 -28 47 -54 47 -58 0 -7 -68 -69 -127 -117
-24 -18 -24 -18 -76 31 -102 95 -188 128 -322 121 -102 -5 -191 -44 -270 -118
-62 -59 -52 -61 -149 27 -66 58 -66 61 6 129 72 70 178 129 283 159 77 22 272
14 355 -14z m2560 0 c87 -30 196 -99 253 -160 26 -28 47 -54 47 -58 0 -7 -68
-69 -127 -117 -24 -18 -24 -18 -76 31 -102 95 -188 128 -322 121 -102 -5 -191
-44 -270 -118 -62 -59 -52 -61 -149 27 -66 58 -66 61 6 129 72 70 178 129 283
159 77 22 272 14 355 -14z m2560 0 c87 -30 196 -99 253 -160 26 -28 47 -54 47
-58 0 -7 -68 -69 -127 -117 -24 -18 -24 -18 -76 31 -102 95 -188 128 -322 121
-102 -5 -191 -44 -270 -118 -62 -59 -52 -61 -149 27 -66 58 -66 61 6 129 72
70 178 129 283 159 77 22 272 14 355 -14z m2560 0 c87 -30 196 -99 253 -160
26 -28 47 -54 47 -58 0 -7 -68 -69 -127 -117 -24 -18 -24 -18 -76 31 -102 95
-188 128 -322 121 -102 -5 -191 -44 -270 -118 -62 -59 -52 -61 -149 27 -66 58
-66 61 6 129 72 70 178 129 283 159 77 22 272 14 355 -14z m2560 0 c36 -13 92
-39 125 -59 64 -38 175 -138 175 -156 0 -10 -60 -66 -127 -120 -24 -18 -24
-18 -76 31 -102 95 -188 128 -322 121 -102 -5 -191 -44 -270 -118 -62 -59 -52
-61 -149 27 -66 58 -66 61 6 129 72 70 178 129 283 159 77 22 272 14 355 -14z
m-9004 -192 c154 -21 310 -84 450 -180 102 -71 280 -256 271 -283 -2 -5 -45
-27 -95 -48 l-92 -38 -67 71 c-150 159 -326 247 -542 271 -260 28 -513 -69
-704 -272 l-68 -71 -91 39 c-51 21 -94 44 -95 49 -5 13 82 118 151 183 235
223 556 325 882 279z m2560 0 c154 -21 310 -84 450 -180 102 -71 280 -256 271
-283 -2 -5 -45 -27 -95 -48 l-92 -38 -67 71 c-192 203 -465 305 -720 270 -202
-28 -354 -103 -502 -249 l-95 -92 -90 38 c-49 22 -92 44 -93 49 -5 13 82 118
151 183 235 223 556 325 882 279z m2560 0 c154 -21 310 -84 450 -180 102 -71
280 -256 271 -283 -2 -5 -45 -27 -95 -48 l-92 -38 -67 71 c-192 203 -465 305
-720 270 -202 -28 -354 -103 -502 -249 l-95 -92 -90 38 c-49 22 -92 44 -93 49
-5 13 82 118 151 183 235 223 556 325 882 279z m2560 0 c154 -21 310 -84 450
-180 102 -71 280 -256 271 -283 -2 -5 -45 -27 -95 -48 l-92 -38 -67 71 c-192
203 -465 305 -720 270 -202 -28 -354 -103 -502 -249 l-95 -92 -90 38 c-49 22
-92 44 -93 49 -5 13 82 118 151 183 235 223 556 325 882 279z m-9023 -225 c46
-23 66 -44 89 -88 19 -38 20 -42 4 -70 l-16 -31 -170 0 -170 0 -16 31 c-16 30
-16 33 7 74 54 97 173 134 272 84z m2560 0 c46 -23 66 -44 89 -88 19 -38 20
-42 4 -70 l-16 -31 -170 0 -170 0 -16 31 c-16 30 -16 33 7 74 54 97 173 134
272 84z m2560 0 c46 -23 66 -44 89 -88 19 -38 20 -42 4 -70 l-16 -31 -170 0
-170 0 -16 31 c-16 30 -16 33 7 74 54 97 173 134 272 84z m2560 0 c46 -23 66
-44 89 -88 19 -38 20 -42 4 -70 l-16 -31 -170 0 -170 0 -16 31 c-16 30 -16 33
7 74 54 97 173 134 272 84z m2560 0 c46 -23 66 -44 89 -88 19 -38 20 -42 4
-70 l-16 -31 -170 0 -170 0 -16 31 c-16 30 -16 33 7 74 54 97 173 134 272 84z
m-8923 -206 c75 -14 138 -40 214 -88 59 -37 156 -129 156 -147 0 -7 -68 -69
-127 -117 -24 -18 -24 -18 -78 33 -64 60 -156 106 -237 119 -120 19 -256 -27
-353 -119 -54 -51 -54 -51 -78 -33 -66 53 -127 110 -127 119 0 18 102 111 167
153 68 43 166 78 258 91 63 9 114 6 205 -11z m2560 0 c75 -14 138 -40 214 -88
59 -37 156 -129 156 -147 0 -7 -68 -69 -127 -117 -24 -18 -24 -18 -78 33 -97
92 -233 138 -352 119 -82 -13 -174 -59 -238 -119 -54 -51 -54 -51 -78 -33 -66
53 -127 110 -127 119 0 18 102 111 167 153 68 43 166 78 258 91 63 9 114 6
205 -11z m2560 0 c75 -14 138 -40 214 -88 59 -37 156 -129 156 -147 0 -7 -68
-69 -127 -117 -24 -18 -24 -18 -78 33 -64 60 -156 106 -237 119 -120 19 -256
-27 -353 -119 -54 -51 -54 -51 -78 -33 -66 53 -127 110 -127 119 0 18 102 111
167 153 68 43 166 78 258 91 63 9 114 6 205 -11z m2560 0 c75 -14 138 -40 214
-88 59 -37 156 -129 156 -147 0 -7 -68 -69 -127 -117 -24 -18 -24 -18 -78 33
-97 92 -233 138 -352 119 -82 -13 -174 -59 -238 -119 -54 -51 -54 -51 -78 -33
-66 53 -127 110 -127 119 0 18 102 111 167 153 68 43 166 78 258 91 63 9 114
6 205 -11z m-8820 -233 c183 -49 323 -130 466 -268 101 -96 153 -163 138 -176
-5 -5 -43 -23 -84 -41 -41 -17 -80 -34 -87 -36 -6 -3 -44 29 -85 71 -169 178
-379 269 -618 269 -239 0 -450 -91 -618 -268 l-73 -77 -87 37 c-48 20 -91 40
-96 45 -23 20 140 198 258 281 148 104 279 156 486 192 14 3 88 3 165 1 110
-3 161 -10 235 -30z m2560 0 c183 -49 323 -130 466 -268 101 -96 153 -163 138
-176 -5 -5 -43 -23 -84 -41 -41 -17 -80 -34 -87 -36 -6 -3 -44 29 -85 71 -169
178 -379 269 -618 269 -239 0 -450 -91 -618 -268 l-73 -77 -87 37 c-48 20 -91
40 -96 45 -23 20 140 198 258 281 148 104 279 156 486 192 14 3 88 3 165 1
110 -3 161 -10 235 -30z m2560 0 c183 -49 323 -130 466 -268 101 -96 153 -163
138 -176 -5 -5 -43 -23 -84 -41 -41 -17 -80 -34 -87 -36 -6 -3 -44 29 -85 71
-169 178 -379 269 -618 269 -239 0 -450 -91 -618 -268 l-73 -77 -87 37 c-48
20 -91 40 -96 45 -22 20 143 200 259 281 147 104 279 156 485 192 14 3 88 3
165 1 110 -3 161 -10 235 -30z m2560 0 c183 -49 323 -130 466 -268 101 -96
153 -163 138 -176 -5 -5 -43 -23 -84 -41 -41 -17 -80 -34 -87 -36 -6 -3 -44
29 -85 71 -169 178 -379 269 -618 269 -239 0 -450 -91 -618 -268 l-73 -77 -87
37 c-48 20 -91 40 -96 45 -22 20 143 200 259 281 147 104 279 156 485 192 14
3 88 3 165 1 110 -3 161 -10 235 -30z m2560 0 c183 -49 323 -130 466 -268 101
-96 153 -163 138 -176 -5 -5 -43 -23 -84 -41 -41 -17 -80 -34 -86 -36 -6 -3
-44 30 -85 72 -173 178 -380 268 -619 268 -239 0 -450 -91 -618 -268 l-73 -77
-87 37 c-48 20 -91 40 -96 45 -22 20 143 200 259 281 147 104 279 156 485 192
14 3 88 3 165 1 110 -3 161 -10 235 -30z m-9131 -205 c43 -21 71 -53 90 -99
10 -24 10 -34 -2 -57 l-14 -27 -173 -1 -173 -1 -15 31 c-14 30 -13 35 9 75 56
99 173 133 278 79z m2560 0 c43 -21 71 -53 90 -99 10 -24 10 -34 -2 -57 l-14
-27 -173 -1 -173 -1 -15 31 c-14 30 -13 35 9 75 56 99 173 133 278 79z m2560
0 c43 -21 71 -53 90 -99 10 -24 10 -34 -2 -57 l-14 -27 -173 -1 -173 -1 -15
31 c-14 30 -13 35 9 75 56 99 173 133 278 79z m2560 0 c43 -21 71 -53 90 -99
10 -24 10 -34 -2 -57 l-14 -27 -173 -1 -173 -1 -15 31 c-14 30 -13 35 9 75 56
99 173 133 278 79z m-8859 -219 c87 -30 196 -99 253 -160 26 -28 47 -54 47
-58 0 -7 -68 -69 -127 -117 -24 -18 -24 -18 -76 31 -102 95 -188 128 -322 121
-102 -5 -191 -44 -270 -118 -62 -59 -52 -61 -149 27 -66 58 -66 61 6 129 72
70 178 129 283 159 77 22 272 14 355 -14z m2560 0 c87 -30 196 -99 253 -160
26 -28 47 -54 47 -58 0 -7 -68 -69 -127 -117 -24 -18 -24 -18 -76 31 -102 95
-188 128 -322 121 -102 -5 -191 -44 -270 -118 -62 -59 -52 -61 -149 27 -66 58
-66 61 6 129 72 70 178 129 283 159 77 22 272 14 355 -14z m2560 0 c87 -30
196 -99 253 -160 26 -28 47 -54 47 -58 0 -7 -68 -69 -127 -117 -24 -18 -24
-18 -76 31 -102 95 -188 128 -322 121 -102 -5 -191 -44 -270 -118 -62 -59 -52
-61 -149 27 -66 58 -66 61 6 129 72 70 178 129 283 159 77 22 272 14 355 -14z
m2560 0 c87 -30 196 -99 253 -160 26 -28 47 -54 47 -58 0 -7 -68 -69 -127
-117 -24 -18 -24 -18 -76 31 -102 95 -188 128 -322 121 -102 -5 -191 -44 -270
-118 -62 -59 -52 -61 -149 27 -66 58 -66 61 6 129 72 70 178 129 283 159 77
22 272 14 355 -14z m2560 0 c36 -13 92 -39 125 -59 64 -38 175 -138 175 -156
0 -10 -60 -66 -127 -120 -24 -18 -24 -18 -76 31 -102 95 -188 128 -322 121
-102 -5 -191 -44 -270 -118 -62 -59 -52 -61 -149 27 -66 58 -66 61 6 129 72
70 178 129 283 159 77 22 272 14 355 -14z m-9004 -192 c154 -21 310 -84 450
-180 102 -71 280 -256 271 -283 -2 -5 -45 -27 -95 -48 l-92 -38 -67 71 c-150
159 -326 247 -542 271 -260 28 -513 -69 -704 -272 l-68 -71 -91 39 c-51 21
-94 44 -95 49 -5 13 82 118 151 183 235 223 556 325 882 279z m2560 0 c154
-21 310 -84 450 -180 102 -71 280 -256 271 -283 -2 -5 -45 -27 -95 -48 l-92
-38 -67 71 c-192 203 -465 305 -720 270 -202 -28 -354 -103 -502 -249 l-95
-92 -90 38 c-49 22 -92 44 -93 49 -5 13 82 118 151 183 235 223 556 325 882
279z m2560 0 c154 -21 310 -84 450 -180 102 -71 280 -256 271 -283 -2 -5 -45
-27 -95 -48 l-92 -38 -67 71 c-192 203 -465 305 -720 270 -202 -28 -354 -103
-502 -249 l-95 -92 -90 38 c-49 22 -92 44 -93 49 -5 13 82 118 151 183 235
223 556 325 882 279z m2560 0 c154 -21 310 -84 450 -180 102 -71 280 -256 271
-283 -2 -5 -45 -27 -95 -48 l-92 -38 -67 71 c-192 203 -465 305 -720 270 -202
-28 -354 -103 -502 -249 l-95 -92 -90 38 c-49 22 -92 44 -93 49 -5 13 82 118
151 183 235 223 556 325 882 279z m-9023 -225 c46 -23 66 -44 89 -88 19 -38
20 -42 4 -70 l-16 -31 -170 0 -170 0 -16 31 c-16 30 -16 33 7 74 54 97 173
134 272 84z m2560 0 c46 -23 66 -44 89 -88 19 -38 20 -42 4 -70 l-16 -31 -170
0 -170 0 -16 31 c-16 30 -16 33 7 74 54 97 173 134 272 84z m2560 0 c46 -23
66 -44 89 -88 19 -38 20 -42 4 -70 l-16 -31 -170 0 -170 0 -16 31 c-16 30 -16
33 7 74 54 97 173 134 272 84z m2560 0 c46 -23 66 -44 89 -88 19 -38 20 -42 4
-70 l-16 -31 -170 0 -170 0 -16 31 c-16 30 -16 33 7 74 54 97 173 134 272 84z
m2560 0 c46 -23 66 -44 89 -88 19 -38 20 -42 4 -70 l-16 -31 -170 0 -170 0
-16 31 c-16 30 -16 33 7 74 54 97 173 134 272 84z m-8923 -206 c75 -14 138
-40 214 -88 59 -37 156 -129 156 -147 0 -7 -68 -69 -127 -117 -24 -18 -24 -18
-78 33 -97 92 -233 138 -352 119 -82 -13 -174 -59 -238 -119 -54 -51 -54 -51
-78 -33 -66 53 -127 110 -127 119 0 18 102 111 167 153 68 43 166 78 258 91
63 9 114 6 205 -11z m2560 0 c75 -14 138 -40 214 -88 59 -37 156 -129 156
-147 0 -7 -68 -69 -127 -117 -24 -18 -24 -18 -78 33 -97 92 -233 138 -352 119
-82 -13 -174 -59 -238 -119 -54 -51 -54 -51 -78 -33 -66 53 -127 110 -127 119
0 18 102 111 167 153 68 43 166 78 258 91 63 9 114 6 205 -11z m2560 0 c75
-14 138 -40 214 -88 59 -37 156 -129 156 -147 0 -7 -68 -69 -127 -117 -24 -18
-24 -18 -78 33 -171 162 -419 162 -590 0 -54 -51 -54 -51 -78 -33 -66 53 -127
110 -127 119 0 18 102 111 167 153 68 43 166 78 258 91 63 9 114 6 205 -11z
m2560 0 c75 -14 138 -40 214 -88 59 -37 156 -129 156 -147 0 -7 -68 -69 -127
-117 -24 -18 -24 -18 -78 33 -171 162 -419 162 -590 0 -54 -51 -54 -51 -78
-33 -66 53 -127 110 -127 119 0 18 102 111 167 153 68 43 166 78 258 91 63 9
114 6 205 -11z"/>
<path d="M1195 204 c-154 -23 -287 -73 -406 -155 l-64 -44 278 -3 c152 -1 402
-1 555 0 l277 3 -64 44 c-86 59 -211 116 -298 135 -76 17 -226 28 -278 20z"/>
<path d="M3755 204 c-154 -23 -287 -73 -406 -155 l-64 -44 278 -3 c152 -1 402
-1 555 0 l277 3 -64 44 c-86 59 -211 116 -298 135 -76 17 -226 28 -278 20z"/>
<path d="M6315 204 c-154 -23 -287 -73 -406 -155 l-64 -44 278 -3 c152 -1 402
-1 555 0 l277 3 -64 44 c-86 59 -211 116 -298 135 -76 17 -226 28 -278 20z"/>
<path d="M8875 204 c-154 -23 -287 -73 -406 -155 l-64 -44 278 -3 c152 -1 402
-1 555 0 l277 3 -64 44 c-86 59 -211 116 -298 135 -76 17 -226 28 -278 20z"/>
<path d="M11435 204 c-154 -23 -287 -73 -406 -155 l-64 -44 278 -3 c152 -1
402 -1 555 0 l277 3 -64 44 c-86 59 -211 116 -298 135 -76 17 -226 28 -278 20z"/>
</g>
</svg>
