<svg xmlns="http://www.w3.org/2000/svg" xmlns:xlink="http://www.w3.org/1999/xlink" viewBox="0 0 695 444"><path fill="#5F86C0" stroke="#5F86C0" d="m276 52 1 2-1-2ZM280 54l2 3-2-3ZM285 59l1 2-1-2ZM409 66l7 9 8 3 5 6 7 15q0 8 3 14l1 26-1 5-3 3-8 2-21 1-1-1-11-1-4-2 2-2 1-5-2-4h-3v-2h-9l-1-1h-8l1-3 1-15 6-17v-8q2-8 8-13 2-4 10-3l12-7ZM293 82l1 2-1-2ZM290 84l1 2-1-2ZM280 86l1 2-4 2-2-1v2q-3-1 0-3l5-2ZM287 87l2 2h-1l-1-2ZM294 88l-1 2h-2l3-2ZM270 90l2 2-1-1-1-1ZM297 90l2 1q-2 3-2-1ZM203 92v5l-2-3 2-2ZM286 92l1 2-1-2ZM259 93l3 2-9 1-3-1 9-2ZM277 93l4 3-4 1 1-2q-5-1-5 2-3-1 0-3h2l2-1ZM292 93l1 2h-2v1l-1-2 2-1ZM206 94l-1 2 1-2ZM232 95l2 1 16 1h-16l-2-2ZM266 96v3l-1 1-1-2 2-2ZM286 96l1 2-1-2ZM284 97l1 2h-3l2-2ZM203 98l5 4-5 1 1 1q-3-1-1-6ZM258 98l1 2-1-2ZM223 99l3 1h-3v-1ZM272 99l2 1h1l-2 1-1-2Z"/><path fill="#5F86C0" stroke="#5F86C0" d="M200 100q3 2 0 3v-3ZM211 100l1 2h-3l2-2ZM219 100l1 3-1 1 4 3h1v-2l1 3q3-1 2 2h-2l-7-1 4-1-6-5h3v-3ZM242 100l4 2h-5l1-2ZM269 100l2 2-5 1-1-2 4-1ZM225 101l7 1-4 1-3-1v-1ZM253 101l2 1h-2v-1ZM212 104l3 2h-3q1 3-2 2v-1l2-1v-2ZM209 105l-1 2 1-2ZM237 105l12 1h-12v-1Z"/><path fill="#5F86C0" stroke="#5F86C0" d="M213 107q5-2 4 2-5 2-4-2ZM308 107l1 2-1-2ZM313 111l3 4-3-4ZM277 121v11h-1l1-11ZM288 121l3 4-3-4ZM352 134l10 4-8 11-14-3q-1-3 2-2l8-7 2-3ZM292 135l10 4-8 11-13-3 4-6 7-6ZM259 136l1 2-1-2ZM421 159l5 2h2l4 1 1 2 2-1 1 2h1v1l2-1-1 2-5 3h-2q1 2-1 1h-2q-4-4-11-3 1-3-2-2l-5-1 1-3h5l5-3Zm3 3-3 1 3 5 4-1 2-2q-1-4-6-3ZM323 165l11 3-8 11h-4l-11-3 12-11Zm1 3-3 3h4l-1 2-3-1-1 2 3 1 2-1 2-4-3-2ZM440 167l1 3-2 1-1-2 2-2ZM414 168l3 1v2l-3-3ZM434 173l-1 2 1-2ZM256 220h5l6 3-9 11-13-3 2-4q3 1 2-1l3-2q-1-3 2-2l2-2ZM411 220l1 2-1-2ZM398 222l3 4-3-4ZM415 224l4 5-4-5ZM396 227l9 11h-1l-8-11ZM402 227l3 4q-3 1-2-1l-1-3ZM383 228l2 1-1 2-1-3ZM267 232l11 2-8 12-12-2-2-1 11-11ZM386 233l5 7-4-3-1-4ZM393 240l2 1h-2v-1ZM237 286l1 2-1-2ZM243 303v3h-1l1-3ZM197 320v7h-1l1-7ZM198 338h3l7 5h1q-2 3-4-2l-7-2-2 1 2-2ZM195 340v2l-1 2-1-2 2-2Z"/><path fill="#5F86C0" stroke="#5F86C0" d="m203 342 4 3 2 18h-1l-2-16-2 1 1-2-2-4ZM226 345l8 2v2l-8-3v-1ZM225 347l1 4q-4 1-1-4ZM198 349l4 9-2-1-2-8ZM228 353l2 5-2-1v-4ZM236 359l1 9 2 2-2-2-3-1-3-6 2 1 2 2 1-5ZM205 361l3 5-4-3 1-2ZM431 411l-4 5 4-5ZM414 422l-1 2v1l-1-1 2-2ZM431 424l1 1q-2 2-6 1v-1l5-1ZM419 426l2 1h-2v-1Z"/><path fill="#D7E6FC" stroke="#D7E6FC" d="m262 47 3 1q-1 2-2 0l-1-1ZM586 47v2l-7 4-1-2-3 3-5 1-6 4-1-2-2 3 1 1-3-3q2 1 4-2l4-2 1 1v-2h6v-1h2q-1-3 3-2l2 1 2-1 1-2 1 1 1-2ZM556 58l2 1 1 2-1-1q-3-1-2 2h-2l-1-2h3v-2ZM551 61l2 1h-2v-1ZM603 62l2 3-2 1-2-2 2-2ZM644 68l3 1-3 1v-2ZM622 84v3q-3 1-2-1l2-2ZM514 88l4 2h-2l1 3v2h-3v-7ZM612 90l2 2v1l-2-3ZM591 95q2 1 1 5-5 1-6-3l3-1 1 1 1-2ZM80 96l1 2q-3 1-1-2ZM182 98v2h-2l2-2ZM482 101h5v2l-1-1-3 1-1-2ZM213 104l2 1h-2v-1ZM236 104l16 1h-16v-1ZM496 108l3 4-3-2-2 1 2-3ZM181 109v2h-2l2-2ZM77 110q3 2 0 3h-2l2-3ZM145 111l-1 2 1-2ZM179 115v4h-1q1-3-2-2v-1l3-1ZM49 116l2 1q1-2 2 1h-2l-2 4-3-1 3-5ZM642 117l2 1-2 1v-2ZM500 118v3h-1l1-3ZM514 118l2 1h-2v-1ZM281 121q2-1 1 2h-3v6l3 1h1l-1 2-4 1 1 1-2-1v-9l4-3ZM285 122q2-1 1 2l2 2-3-4ZM179 123q3-1 1 5l-3 1 1-3 1 1v-4ZM292 129l4 3h-1l-3-3ZM180 130v12q-2 3-7 2v-1l6-1-2-1 2-1-1-2 2-8ZM291 132l2 1h-2v-1ZM499 135l1 3-2 1 1-4ZM495 141v3h-1l1-3ZM496 141q3-1 2 2v1l2 2v1q2-1 1 2l-4-2-2 1 1-7ZM160 144l-1 2-2 4-1-1h-9l-2 1q2-4 7-4l4 1 4-3ZM162 145l-1 2 1-2ZM498 149l1 2-1-2ZM137 151v2h-2l2-2ZM504 152q2-1 1 2l1 3-2-5ZM666 153q3-1 2 3-2 1-1 6l-3 3 3 1-2 7 1 3-2 3q-3-1-2 2l1 2-2 4q2 1 0 2h-2q-1 2 2 1v2q-3-1-2 2l-2 3-7 2h5q1 3-1 4l-4-1q-1 3 3 2v1q-3-1-2 3h-1v-2l-2 5-2 1 1 1q-4 1-3-2h-1q-1 4 2 3l-2 3q-3 1-2-1h-1v2q-2-2-3 1v3q-3-1-2 2l-3 1 1 1q-3 1-2-1h-1q1 5-3 5l-2-1-2 1h-2l2 3h-2q1 2-1 1l-3 3-1-1-2 1 1 1h-2v1q-2-2-3 1 1 2-2 1h-4q2 4-1 3h-3v-3l-3 2 2 1-2 1 3 1q-1 2-2 0l-2 1 1 1-2-1-7 6-2-1-8 4-1 3h-2q1 2-2 1v-2l-1 2-2-1-1 3h-2v2l-1-2-2 1 1 1-2 1 1 1-5-1-1 2 2 1-7 2v2l-1-2-3 5-2-5-3-1-1-6 1-3-1-4v-14l-1 5-1-7 4 3-1 3 3-1q-1-3 3-2l3-6q3 1 2-1l3-2v-2l2-1 1 1-1-2 2-1 6-7 12-8q-1-3 2-2l4-5 5-1 2-3 3 2-1-3 2-2q3 1 2-1l5-4 1 1q-1-4 3-3l2-1 2 1 1-3 5-1 3-4q2 1 1-2h2v-2h3v-2q2 1 1-2h3l8-5 1 1 2-3h3v-2l4-2 1 1-1-2 3-2 1 2 1-2-3-1 4-2 6-3v2q3 1 2-1-2-2 1-3l1 2 1-4Zm-3 9v2l2-1-2-1Zm-19 10v4-1q2-2 0-3Zm-5 2-1 4h1v-4Zm15 1q0 4 2 1l-2-1Zm-8 3-1 2-2 1h4l-1-3Zm-6 1-1 2q3-1 2 2h2l-1-3-2-1Zm14 0v3l2-1-2-2Zm3 2v1h2l-2-1Zm-29 2v3q5 2 4-2l-4-1Zm7 1-2 2 1 2 2-3-1-1Zm5 0q-2 3 1 2l-1-2Zm13 0q-1 3 2 2 1-3-2-2Zm4 1-3 3 1 3 3-5-1-1Zm-32 1 1 1 1 1q1-3-2-2Zm27 0 1 2q1-3-1-2Zm-10 2 1 4h3l-1-1v-1l-3-2Zm-16 1-2 3 2-1v-2Zm-12 1q-1 3 2 2 1-3-2-2Zm8 0-2 3h2q3-1 0-3Zm9 0-2 3 3-1-1-2Zm8 3q-2 3 1 2l-1-2Zm-17 1q-2 3 1 2l-1-2Zm20 0v3h1q1-4-1-3Zm-31 1 1 2q1-3-1-2Zm6 0-2 2h2v-2Zm14 0 1 4 4-2-3-2h-2Zm-24 1v3q3 1 2-1l-2-2Zm-4 1q-2 3 1 2l-1-2Zm26 0-1 4 2-1-1-3Zm5 3-1 2-5 1 1 2 6-2-1-3Zm7 0 1 2h1l-2-2Zm4 1q-3 2 0 3l2-1-2-2Zm-37 1 1 2q1-3-1-2Zm13 0-1 2 2-1-1-1Zm5 0q0 4 2 1l-2-1Zm10 0v2l2-1-2-1Zm5 0-1 2 4 2v-1l-3-3Zm-19 2-2 2 1 3v-1h2l-1-4Zm-21 1-1 3h3l-1-1 3-1-4-1Zm9 0-1 2 2-1-1-1Zm7 0 1 2q1-3-1-2Zm13 0-1 3h1v-3Zm-23 1-2 3 2-1v-2Zm6 0-2 2h2v-2Zm33 0-2 2 2 2v-2h2l-2-2Zm-51 1q-1 3 2 2 1-3-2-2Zm-6 1v2l2 1q1-4-2-3Zm4 0-1 3h1v-3Zm41 0-1 3h1v-3Zm7 0v1h2l-2-1Zm-16 1-1 5 3 1v-2q-3 1-2-1 2-2 0-3Zm-19 1-1 4h2l-1-4Zm6 0-4 2h5l-1-2Zm9 1-7 4 3 1v-2h6l-2-1v-2Zm-38 1-4 4q-1 3 2 2-1-3 2-4v-2Zm13 0-2 2h2v-2Zm-3 1-2 2h2v-2Zm47 0v1h2l-2-1Zm-56 1-2 3 2-1v-2Zm41 1-1 3 2 1-1-4Zm-38 1-1 3h1v-3Zm11 0v2l2-1-2-1Zm10 0v2l2-1v2h1q1-5-3-3Zm22 0-2 2h2v-2Zm7 0-3 2q2 3 3 0v-2Zm-22 1 1 2q1-3-1-2Zm-31 1v3h1q1-4-1-3Zm21 0-1 6h2l-1-6Zm-3 1q-3 4 1 3l-1-3Zm11 0v1h2l-2-1Zm9 0-1 4h1v-4Zm-29 1-1 2 2 1-1-3Zm24 0-1 3h1v-3Zm-44 1-1 3h1v-3Zm9 0q-2 3 1 2l-1-2Zm2 2-1 2 3-1-2-1Zm-16 1q-2 4 2 3v-2l-2-1Zm24 0v1h2l-2-1Zm5 0v1h3l-3-1Zm13 0-2 3 2 1v-4Zm-30 1q-3 2 0 3l2-1q1-3-2-2Zm24 0 1 2 3-1-4-1Zm-19 1-2 2h2v-2Zm31 1-3 3 4 2h1l-2-2v-3Zm-26 3-1 3h1v-3Zm-11 1-2 2h3q1-3-1-2Zm-16 1-4 2h4v-2Zm6 0-1 2 2-1-1-1Zm27 1v2l2-1-2-1Zm-21 1-1 3h2l-1 2h2q2-1 0-2 1-4-2-3Zm4 0 1 2h1l-2-2Zm22 0v1h3l-3-1Zm-38 1-2 2h2v-2Zm5 1 1 3 1-2-2-1Zm-7 1-1 2q2 3 3 0l-2-2Zm28 0-1 3h1v-3Zm11 0q-1 3-6 2l1 2 5-2v-2Zm-15 1v1h2l-2-1Zm-32 2v1h2l-2-1Zm6 0 1 3-1 2h3l-1-3q1-3-2-2Zm-2 1 1 2q1-3-1-2Zm-4 1-2 2h3q1-3-1-2Zm11 0-1 2q2 3 3 0l-2-2Zm23 0q-1 3 2 2 1-3-2-2Zm6 0 1 2q1-3-1-2Zm-44 3-2 4 3-1-1-3Zm-3 2-1 3h1v-3Zm9 0-3 3 1 1 2-1h2v-1l-2-2Zm30 0-1 3h1v-3Zm4 0-1 3h1v-3Zm-39 1v2q-2 1 1 2l1-3-2-1Zm12 0 1 3 1-2-2-1Zm20 1-2 2 1 2h2l-1-4Zm-24 1-2 2h2v-2Zm-2 2-1 2 2 1-1-3Zm15 0q-2 3 1 2l-1-2Zm6 2-1 4h1v-4Zm-25 3-1 4h1v-4Zm18 0 1 2q1-3-1-2Zm-13 3v2l2-1-2-1Zm-8 1-4 2h4v-2Zm4 0 1 2h2l-3-2ZM509 157q2-1 1 2l-1-2ZM512 157l1 2-1-2ZM132 159q4-1 3 2h-3v-2ZM668 163l-1 2 1-2ZM135 164v2l1 1q-2 1-1 7l3 3h1l-1 3v1l-3-7q-3 1-2-6l2-4ZM514 166l2 1q-2 3-2-1ZM324 170q4 2 1 4h-2l2-1-1-3ZM484 173l1 2-1-2ZM519 173l1 6-1 3 1 3q-3 1-1 3l-2-1q4-2 1-3v-8l-1-1 2-2ZM111 178q3-1 1 4l-1 2q-3 1-2-2l2-4ZM557 182l3 3v3q-5-1-3-6ZM607 184q3 2 0 3t-2-1l2-2ZM155 186l-1 2-1 3-1-2h-2l5-3ZM142 187q3-1 2 2l-1-1-1-1ZM526 187l3 2h-3v-2ZM518 190v3h-1l1-3ZM157 191q0 4 5 3 1-2 2 1l-4 2-1-2q-3 1-2-2v-2ZM515 193v14h2l-1-2h2q3-1 2 2l1 1-8 1 2-16ZM157 197l-1 2q1 7-4 8l1 1q-3-1-2 3l1 1-6-4 4-3 2 1q-1-4 2-3 2-1 0-2-1-4 2-3l1-1ZM123 201q5-1 6 2h-8v-1l2-1ZM118 202v2h-2l2-2ZM134 203l5 1 3-1q-2 4 3 3v1l-11-3v-1ZM113 205l-1 2 1-2ZM521 209l3 2-1-1q-3 1-2-1ZM107 211l-1 2 1-2ZM526 211l3 2h-1l-2-2ZM534 218l2 2v1l-2-3ZM541 226l2 7-2 5-2-6h1l1 1v-2l-3-1 3-4ZM200 238l3 3q1 3-1 2l-2 1v-6ZM443 250l3 3 2 3q-1 2-5 1h-2q1 3-4 1v-1l4-1 1-3q-2-2 1-3ZM449 250v3l-2-1 2-2ZM436 254l1 1-3 2-1-2 3-1ZM238 255l5 2q2 4-1 3l-4-5ZM232 256l4 3-1 3q-4-1-3-6ZM427 256l-1 2q1 2-2 1l-1-2 4-1ZM408 261l5 3-4 1-1-4ZM255 262l2 1h-2v-1ZM263 262q3 3 9 3l-2 1 2 1h-2l-3-1q-3 1-2-2h-3l1-2ZM403 262v2l-10 4 1-2q1 2 2 0l-2-1q6 0 9-3ZM279 268l4 1h-4v-1ZM287 268l10 2h-9l-1-2ZM376 268l3 1-2 1-1-2ZM542 268v6h-1l1-6ZM314 269l2 1h1l1 3v61l-1 1 1 1-3-1 1-4-1-2 1-3-1-2 1-2-1-3v-2l1-5v-2l-1-3q3-2 1-7l-1-5 1-2-1-2v-2l1-5-1-2v-4l1-4-3-1 1-2v-2ZM369 269l5 1h-5v-1ZM394 269v2h-2l2-2ZM231 270l3 1v6h-2q1 3-3 1v-1l2-7ZM359 271q3-1 2 2h-4l2-2ZM544 271l1 3-2 1 1-4ZM357 274l4 1-1 1h-3v-2ZM235 279l1 2-1 3v1l-3-1 2-1 1-4ZM386 279v15h-3l1-3 1 1q2-6-1-7l1-2v-2l1-2ZM238 286l1 2-1-2ZM241 286l1 2q-3 1-1-2ZM100 292q4-1 2 7l1 2q-4 1-2-5h-3l2-4ZM243 297l3 8-1 5 8 6h-1l-9-6 1-4-1-9ZM265 303v2q-1 3-3 0l3-2ZM388 303l2 9h-2v-3q-3 1-2-2-3-2 2-4ZM101 308l2 1-2 1v-2Z"/><path fill="#D7E6FC" stroke="#D7E6FC" d="M252 310q3 2 0 3-3-1 0-3ZM392 311l1 5v2l-3 3h-2v1l-2-2 4-5v-2q2 1 2-2ZM107 316l2 3q-3 1-2-1v-2ZM246 318l3 1-4 1h2l-2 4v2l1 3-1 3-1 5 1 2v2l1 7h-1q-4-6-2-16l1-1v-11l2-2ZM196 319v20q-3 1-2-1l-3 1-3-12 2 1 1 4h2v-2l1 1-1-4q3-2 3-8ZM217 319v3l-2 1 2-4ZM262 319q3 2-1 4 1 2-1 1l-2 1 2-4q2 1 2-2ZM114 320l2 1-1 3h-2v-2l1-2ZM118 320v3h-1l1-3ZM134 320l4 1h1l-1 3-3-1h-2l1-3ZM169 320q4-1 5 2l1 2h1l1 5-3 1v-1h1v-4l-3 1v1q-4-1-3-7Z"/><path fill="#D7E6FC" stroke="#D7E6FC" d="M192 321q3-1 2 2-3 1-2-2ZM132 323v3q2 6-2 5v-2l-1 3h-2l2-6 3-3ZM386 323h2q-1 3 2 2v1l-4-1v-2ZM392 325q4-1 3 2v2h-2q2-4-1-3v-1ZM439 325l3 1 2-1v1q-3-1-2 6v2q-3 1-2-3l-1-6ZM477 325l7 1v2l-2 3h-2q-4-1-3 2h-1l1-8ZM503 325l3 1h-3v-1ZM114 329l2 1-1 3-2-1 1-3ZM359 332l2 2 1 2h-5l2-4ZM399 332v4q-3-1-2 2l-1 3q-4 2-3-1h-2l2-3 1 1 3-5 2-1ZM509 333q2-1 1 2l-1-2ZM115 334v5h-1q1-4-1-3v-1l2-1ZM477 334l1 1-2 3-1-2 2-2ZM177 335l-1 2 1-2ZM308 335l3 3q-7-1-9 2l-1-2 7-3ZM311 335l3 1h-3v-1ZM365 336l5 1h1v1l2 2h-1q-3-3-10-2l3-2ZM128 337v3h-1l1-3ZM213 337v3h-1l1-3ZM211 338l1 5-3 1 1-2 1-4ZM442 338v7h-1l1-7ZM273 339l4 3-7 1 3-4ZM282 339v2h-2l2-2ZM474 339l2 1-2 5 3 2-1 3h-2v-4q-3 1-2-1l2-6ZM379 340l2 1h-2v-1ZM126 341l4 1-4 1v-2ZM176 341l3 2 1 4h-1l-1-4q-3 1-2-2ZM220 341l1 3h-3l2-3ZM512 341v2q4-1 2 5l-2-1v-4l-2 1 2-3ZM112 342v5l-3-1 3-4ZM267 343l3 2h-3v-2ZM192 344l1 3-2-1 1-2ZM83 345l3 2-2 3 1 1-2 1v-1l-1-3 1-3ZM208 345v3h-1l1-3ZM224 345q-1 6 2 9l-1-1-4-2 1-3 2-3ZM262 347l2 2-1-1-7 6 2-6 4-1ZM181 348l-1 2 1 2h1l2 5-4 1 1-3-3-5 3-2ZM194 350h2l2 3-2 3-2-6ZM123 351v2q3-1 2 4l-3 1v2l-1-3 2-6ZM208 351q3-1 2 3l4 6q-3 1-2-2h-1v5l-3-12ZM527 352l2 2-1 3 1 3q-3 1-2-6v-2ZM260 353l1 1 134 1H261l-1-2ZM407 354v3l2 5-1-1-3-1q-1-5 2-6ZM227 355l1 2-1-2ZM443 355v3h-1l1-3ZM264 356q3 2 0 3l-3-1 3-2ZM268 356q2-1 1 2l-1-2ZM290 356l1 1-2 1 1-2ZM294 356l3 1h-3v-1ZM307 356l2 1h-2v-1ZM356 356l1 1-3 1v-1l2-1ZM361 356l2 1h1l-2 1-1-2ZM370 356l1 1-4 1v-1l3-1ZM389 356h2q5-1 3 3-3 1-2-1h-1l-2-1-2 1v-1l2-1ZM248 357l2 4-1 3-1-7ZM285 357l2 1h-2v-1ZM312 357l5 1h-5v-1ZM329 357l3 1h-3v-1ZM346 357l3 1h-3v-1ZM472 357l1 3-1 3-3-1 3-5ZM513 357v2l3-1 1 6h-1q1-3-1-2v-2q-5 1-2-3ZM201 358l1 2-1-2Z"/><path fill="#D7E6FC" stroke="#D7E6FC" d="m391 359 1 2h-3l2-2ZM230 360l4 7-3-3-3-1 2-3ZM203 361l3 5-4-3 1-2ZM63 362l1 3q-3 1-1-3ZM530 362l1 2q-3 1-1-2ZM213 364l1 2q-3 1-1-2ZM412 364v3h-2l2-3ZM470 364l-2 3h-2l4-3ZM121 365l3 3-2 4h-2l2-1v-3l-2 1v-2l1-2Z"/><path fill="#D7E6FC" stroke="#D7E6FC" d="m202 365 2 2v1q4-1 5 2l5-3v1q-3-1-2 2l-4 2-4-1-1-3h-2l1-3ZM517 365l1 2-1-2ZM393 367v5l-1 6-2-7 3-4ZM196 368l4 3 1 3-4 2-1-8ZM467 368q3-1 2 2l-2 1v-3ZM518 368q4 2 3 9l-1-1-2 1-3-6 2-1 1-2ZM184 369q4-1 2 4l-1 3q-4 1-2-4l1-3ZM108 370l2 1q-3 4-2 11 0-5-3-6l2-1 1-5ZM161 370l1 2q-3 1-1-2ZM238 370l1 2 1 8h-2v-4q-3 1-2-3h2v-3ZM318 370l1 3-3 2q-1-4 2-3v-2ZM404 370l1 4-2 1 1-5ZM419 371l1 5-1-1h-3l3-4ZM442 371l1 2-1-2ZM68 372q3-1 2 2l1 5-1-1h-2v-6ZM466 373v2l-2 4-1-2 3-4ZM187 376v3h-3l3-3ZM189 376q-1 6 2 9l-1 2q-3-4-1-11ZM250 376l2 3q3-1 1 5l-1 2q-4 1-2-5v-5ZM400 379l1 7-3 2 2-9ZM116 380l2 1 2 4-2 1-3-1q2 4-1 3v-1l2-7ZM464 381v2l-1 2-1-1 2-3ZM241 382v3h-1l1-3ZM154 383h1v4l-4 1q-1-3 2-2l1-3ZM243 385l1 7q-4 2-3-2v-2q2 1 2-3ZM424 387q3-1 2 2l-2-2ZM88 388l2 1q1 3-1 2l-3-1 2-2ZM388 388v2h-2l2-2ZM103 390l2 1-2 1v-2ZM320 390v3h-2l2-3ZM202 395v4h-1l1-4ZM104 396v2l-1 4q-3 1-2-1l3-5ZM114 396v3h-1l1-3ZM192 397l1 4-2-1 1-3ZM211 399l4 1 1 3-2 1-2-1-4 1 2-3 2 1-1-1v-2ZM245 399l1 3h-1v-3ZM256 399l1 3h-2l1-3ZM194 403v2h-2l2-2Z"/><path fill="#E5E9EC" stroke="#E5E9EC" opacity=".2" d="m255 2 2 1q-3 2-8 1l-3 2V5l3-2q4 1 6-1ZM259 2h7l6 4-1-1q-5 1-5-2h-7V2ZM274 6q2-1 1 2l3 6h-1l-3-8ZM242 7l1 1-3 2v1l-1-1 3-3ZM239 12l-1 2v13q-3 1-2 6l1 2 4 1 4 11h-3l-6 3 1-2 6-3 1 1-1-3q-3 1-2-3l-2-4q-4 1-3-1-2-2-1-6l2-3V14l2-2ZM279 16v13h-1l1-13ZM390 22l4 2 7-2 4 3h3l6 7-6-6-10-3-4 2q-2-2-6-1l-5 3-2-3 4 1 5-3ZM375 28l2 1-2 1v-2ZM278 30v11l-2 4-1-1q3-6 3-14ZM374 33v2l-1 2 2 3-3-2 2-5ZM415 33v5h-1l1-5ZM414 40v3h-2l2-3ZM279 41q3-1 2 2-3 1-2-2ZM375 41v10h-1l1-10ZM596 44h20l11 5-1-1-11-3h-18l-10 2v-1l9-2ZM275 46v2l-1 2q10 4 15 12l5 11h-1q-4-11-11-18l-10-4 3-5ZM413 46v5l-1 3 5 1h-7l3-9ZM214 50l20 1-24 1q-11 4-17 13-5 6-7 15-4-2 0-3v-3l7-11q2 1 1-1l5-4 2-3 13-5ZM574 50l2 1-9 3 1-2 6-2ZM631 50l12 10 6 9-2-1q-4-10-12-15-4 0-4-3ZM424 54h5l8 3 10 7 9 15 3 12h-1l-3-10-9-16-5-2q1-3-1-2-6-6-16-6v-1ZM564 54l1 1-8 3 1-2 6-2ZM376 55v6l-2-3 2-3ZM550 60l1 1-4 2 1-2 2-1ZM377 62q1 8 7 11l2 2-3 5-1-1 3-3-8-8v-6ZM541 65l-1 2-8 4 1-2 8-4ZM650 70q4 3 5 11h-1l-4-11ZM529 71l1 1-5 3-1-2 5-2ZM30 74l30 1H30v-1ZM25 75l2 1h-2v-1ZM65 75l4 1h-4v-1ZM74 76l2 1h-2v-1ZM296 76q3 4 4 11h-1l-3-11ZM521 76l-1 2-7 4 2-3 6-3ZM18 77l2 1-8 5q-3 3-2 11l-1-7 6-8 3-2ZM80 77h7l11 3h-5l-7-2h-6v-1ZM100 80l3 1h-3v-1ZM106 81l2 1h-2v-1ZM183 81q3-1 2 2l-2 5-1 10-1-8q3-3 2-9ZM382 81l-1 2v1l-1-1 2-2ZM111 82h5l9 3h-4l-10-2v-1ZM510 82l1 1-8 5 2-3 5-3ZM656 82q4 5 4 13h-1l-3-13ZM127 85l2 1h-2v-1ZM380 85v2l-3 8-1-1 4-9ZM141 88l12 3h-3l-9-2v-1ZM500 88l1 1-5 3 2-3 2-1ZM302 90l4 8-2 1-2-9ZM155 91l2 1h-2v-1ZM460 92v5l2 1v2q-1 4 2 3l9-3q-2-5 2-4v4h2l2 1 5-3-1 2-5 2q-2-2-6-1l-5 3-2-1-4 1-2-7 1-5ZM494 92l-1 2-7 4 2-3 6-3ZM164 93h4l7 3h-3l-8-2v-1ZM177 96l2 1h-2v-1ZM12 97q7 17 20 29h-1l-18-22q-3-3-1-7ZM375 99v2l-3 7-2 12-1-4q3-3 2-10l4-7Z"/><path fill="#E5E9EC" stroke="#E5E9EC" opacity=".2" d="M467 99q2-1 1 2l-1-2ZM306 100q1 7 7 10l9 8 5 8 7 4 17 1h-18l-7-4-1-4-10-11-8-6-1-6ZM662 100v3h-1l1-3ZM663 104l2 8v5h-1l-1-13ZM281 108l3 7-3-2v-3l-2 9-1-4 3-7ZM285 117l3 6h-1l-4-1 3-1q-3-1-1-4ZM366 118q3-1 2 3l1 2-2 9h-13l12-1 2-9-2-1v-3ZM667 125v4h-1l1-4Z"/><path fill="#E5E9EC" stroke="#E5E9EC" opacity=".2" d="m353 127 3 2q1 3-3 1v-3ZM34 128l2 3-2-3ZM668 131l1 9v24l-1 6-1-5 1-1v-24l-1-1 1-8ZM40 134l2 2v1l-2-3ZM45 138l9 10-10-8 1-2ZM56 148q17 15 31 34l-5-4q-10-15-23-26l-4-2 1-2ZM667 172v3h-1l1-3ZM665 180v4l-3 7-1-1 4-10ZM88 183l5 8-3-2-2-6ZM94 192l8 17-2-1-7-14 1-2ZM660 194v2l-4 6v-1l4-7ZM654 204v2l-14 15 7-8 7-9ZM104 213v3l-5 13-1 16-1 1-1-2 1-1 1-16 6-14ZM638 221v2l-3 2 3-4ZM632 226v2l-14 9 2-3 12-8ZM616 237l-2 3-3 1 1-2 4-2ZM609 241l-1 2-6 3 1-2 6-3ZM600 246l-1 2-8 4 1-2 8-4ZM589 252l-1 2-7 3v-1l8-4ZM97 253l1 16h-1v-16ZM578 258l-1 2-5 2v-1l6-3ZM570 262l-1 2 1-2ZM567 264l-1 2-6 3 1-2 6-3ZM99 270l1 19 1 1-2 4-1-2 1-5-1-1 1-16ZM556 270v2l-3 1 1-2 2-1ZM551 273l-1 2 1-2ZM548 275l-1 2-5 2v7l-2 7v11l-4 17-3 5-10 1v3l-1-3 4-2h2q5 1 6-2l5-23 2-20 3-3 4-2ZM97 297v2l-3 6-1-2 4-6ZM93 306l-1 2-3 6-1-1 5-7ZM87 317l-1 2-4 7v-1l5-8ZM509 325l1 3-2-1 1-2ZM81 327l-1 2-2 4-1-1 4-5ZM527 329l1 2q-3 1-1-2ZM524 331v5h-1l1-5ZM77 334l-2 3-3 6-1-1 6-8ZM525 338v4l11 8-2-2-10-6 1-4ZM71 344l-2 3-4 8v-1l6-10ZM538 350l9 8 3 7-3 2q2-2 1-6l-10-11ZM64 356l-1 2-2 6-1-1 4-7ZM546 368l-2 3-4 1v-1l6-3ZM58 371v11h-1l1-11ZM530 374l3 1h-2l3 15v6h-1l-3-22ZM522 377l1 6h-1v-6ZM507 379l3 1h-3v-1ZM499 380l6 1-12 2h-7v-1l12-1 1-1ZM478 383l2 1h-2v-1ZM470 384l4 1h-4v-1ZM60 385l5 6 3 3h-1q-7-3-7-9ZM460 385l7 1h-6v2l-1-3ZM525 388l4 19h-1l-4-12 1-7ZM421 389l4 1h-4v-1ZM427 389l6 17q-1 6-6 9l-1-1q5-3 6-8l-4-11-2-2 1-4ZM410 390l6 1h-6v-1ZM460 390v2l-1 4-1-3 2-3ZM398 391l9 1h-8l-2 2-5 24-3 7h-6v-6l4-14v3l-2 6-1 10h5v-2l7-25v-4l2-2ZM385 392q6-2 4 4l-1 6-1-6 1-3-2 1h-13v-1h11l1-1ZM361 394l4 1h-4v-1ZM72 395l9 4h-3l-5-2-1-2ZM348 395l7 1h-7v-1ZM332 396l11 1-22 1-1 1h-15v-1l26-1 1-1ZM458 397l1 24q-1 3-5 2v-1q4 1 4-2v-23ZM535 397l4 28h-7v-2l-3-6v-2l1-6 3 15h5v-2l-4-20 1-5ZM292 399l5 1h-5v-1ZM87 400l2 1h-2v-1ZM278 400l6 1h-6v-1ZM91 401l3 1h-3v-1ZM262 401l9 1h-9v-1ZM96 402q6-2 8 2l-2 13 3 1 2-1 3-14 3 1 12 1h-15l-2 13-4 1-4-1 3-13q-1-3-7-2v-1ZM242 402q6-1 5 2l3 13 2 1h-3l-3-15-3 1h-16l-1 1h-24v2l-1-3 40-1 1-1ZM254 402l4 1h-3l1 13h-1l-1-12v-2ZM140 405l39 1h-39v-1ZM203 408v3h-1l1-3ZM198 414v3l2 1h-3l1-4ZM204 414v3l-2 1 2-4ZM425 415l-1 2q-8 1-12 7 0 4 3 4l8-1v1l-8 1q-4 0-4-5l1-3 13-6ZM256 417l1 1-2 1 1-2ZM445 422l4 1h-4v-1ZM442 423l1 1q-1 3-7 1v-1q4 1 6-1ZM432 425l2 1q-3 2-8 1v-1q4 1 6-1Z"/><path fill="#A8C9C0" stroke="#A8C9C0" d="m398 23 2 1h-2v-1ZM242 47l3 1h-3v-1ZM277 52l2 2h-1l-1-2ZM282 55l3 4-3-4ZM218 60l-2 3 2-3ZM287 61l1 2-1-2ZM213 66l-1 2 1-2ZM410 66l4 6-2-1-2-5ZM415 73l1 2-1-2ZM387 75l-2 3 2-3ZM425 78l4 5-4-5ZM384 79l-1 2 1-2ZM295 81v2l-8 4v-1l8-5ZM296 84v3l-2 4-5-1-3 5-1-1 3-5 5 1 3-6ZM430 84l1 2-1-2ZM275 89l1 1-11 4h-4v-1l14-4ZM298 90l-2 3-1-2 3-1ZM281 91v2l-3 1v-1l3-2ZM202 92l9 6-1-1-8-4-2 1 2-2ZM294 92v2l-2 1 2-3ZM275 93l1 1-4 3q-7-1-9 3l-1-2q4 1 5-2h5l3-3ZM202 95l1 3h-2l1-3ZM234 95l18 1h-18v-1ZM280 95v2l-3 2-1-2 4-2ZM289 95l1 1-6 3 1-2 4-2ZM213 97l10 3h10q1-2 6-1l2 2h-3l-2-1-1 1h-15l-8-2 1-2ZM259 98l1 1q-3 3-11 2-1-3 2-2l4 1 4-2ZM275 98l-1 2-3 1v-1l4-2ZM209 99q2-1 1 2l3 3-3-1q1-3-3-2v-1l2-1ZM247 99l1 1-3 1v-1l2-1ZM201 102l3 3-1-1-2-2ZM218 102l6 4q1-4 8-3l3 2h-3l-4-1-5 3-5-4-3 2q-1-3 2-2l1-1ZM261 102l4 1-6 1v-1l2-1ZM484 102l2 1h-2v-1ZM256 103l1 1q-1 2-4 1v-1l3-1ZM489 103l1 2-1-2ZM206 104l5 3h-2l-4-1 1-2ZM438 105v3h-1l1-3ZM308 106l4 5-4-5ZM315 112l4 5-4-5ZM197 113v3h-1l1-3ZM373 115v3h-1l1-3ZM440 116v7h-1l1-7ZM278 117v6h-1l1-6ZM321 118l4 5-4-5ZM326 124v3h-1l1-3ZM291 125l3 4-3-4ZM372 126v3l-1 3 8 1h-7l-2-3 2-4ZM296 129l1 2-1-2ZM441 129v7h-1l1-7ZM197 133v4h-1l1-4ZM383 133l6 1h-6v-1ZM271 134l3 1h-3v-1ZM351 134l-1 2q1 2-1 1l-9 7v2l-1-1 12-11ZM354 134l2 1h-2v-1ZM263 135l3 1h-3v-1ZM291 135l-5 6-3 2-2 4 5 2h-2l-5-2 8-9 4-3ZM293 135h3l7 4-9 12h-3l3-1 8-11-9-3v-1ZM358 135l5 1-9 14h-2l2-1 8-11q-5-1-4-3ZM260 136l1 2-1-2ZM265 139l1 2-1-2ZM440 139v3h-1l1-3ZM439 144v2l-5 2v-1q4 1 5-3ZM495 144v3h-1l1-3ZM342 146l9 3h-2l-7-2v-1ZM396 148l2 1h-2v-1ZM429 148l3 1q-6 3-16 1v-1h12l1-1ZM147 149l2 1-5 1v-1l3-1ZM154 149l2 1h-2v-1ZM288 149l2 1h-2v-1ZM401 149l5 1h-5v-1ZM500 151l3 4-3-4ZM476 157l5 4 1 6-1 2q3-1 2 3 3 1 2 3 2-1 1 2l-1 2 8 7q1 9 5 13 3-1 2 4l3 1 9-8 3-6v3l-1 1q1 9-1 15h-2l-14 3-17 10-11 16-6 12v3l-4 9-1 8q-6 0-9-5l-2-8 3-9v-2l1-2v-14l-4 2-6 7-6 1-9-7-12-20-6-17v-5q2-7 11-7l4 3 11 13q3 1 2-2l14-25 8-9q2 1 1-2h3l14-5ZM252 160l3 1h-3v-1ZM509 160l2 3-2-3ZM135 161v3h-1l1-3ZM323 164l11 2 1 2-9 12-12-2-4-2 7-6 2-3 4-3Zm0 1-12 11 11 3h4l8-11-11-3ZM136 167v7l2 2-3-2 1-7ZM514 167l1 3h-1v-3Z"/><path fill="#A8C9C0" stroke="#A8C9C0" d="m324 168 3 2h-2l-1-2ZM326 171l-1 2 1-2ZM140 176l1 2-1-2ZM517 177v7h-1l1-7ZM332 179q1 3 7 1l1 2 1 4-2-1q1-4-1-3-2-2-6-1l-2 2-2 10 3 1h-4l2-14 3-1Z"/><path fill="#A8C9C0" stroke="#A8C9C0" d="m333 183-1 2v1l-1-1 2-2ZM337 183l1 3h-1v-3ZM335 184v3q-3-1 0-3ZM156 187l2 3-2-3ZM333 187l1 3h-1v-2l-1 2-1-1 2-2ZM341 187v8h-9l8-1 1-7Z"/><path fill="#A8C9C0" stroke="#A8C9C0" d="M338 188v3l-2 1 2-4ZM257 218l11 3-8 13-3 1-13-4 11-12 2-1Zm-1 2-2 2q-3-1-2 2l-3 2q1 2-2 1l-2 4 13 3 9-11-6-3h-5ZM414 222l7 8-7-8ZM400 225l1 2-1-2ZM267 231l11 2 1 2-9 12h-4l-11-3v-1l12-12Zm0 1-11 11 2 1 12 2 8-12-11-2ZM403 233l3 5h-1l-2-5ZM199 234l1 2-1-2ZM203 237l1 2-1-2ZM445 248l-1 2-4 1v-1l5-2ZM427 255l-1 2h-2l3-2ZM255 260l2 1h-2v-1ZM401 262l1 1q-2 2-6 1v-1l5-1ZM267 263l3 1h-3v-1ZM280 265l2 1h-2v-1ZM384 265l2 1h-2v-1ZM286 266l4 1h-4v-1ZM376 266l4 1h-4v-1ZM294 267l4 1h-4v-1ZM367 267l6 1h-6v-1ZM308 268l3 1h-3v-1ZM356 268l4 1h-4v-1ZM318 269v3h-1l1-3ZM243 298v5h-1l1-5ZM244 305v4h-1l1-4ZM244 319v12h-1l1-12ZM219 321v3h-1l1-3ZM197 327v12q8 0 11 6h-3l3 12 1-3v3q-2 1-1 6h1l1-3v5l-1 2-6-4-3-5 1-3h-1v1l-7-8-1-6 4-3 1-12Zm-2 13-2 2 1 2 1-2v-2Zm3 9-1 2 2 1-1-3ZM116 332v3h-1l1-3ZM243 333v6h-1l1-6ZM318 336l-1 2 1-2ZM360 337l9 1 1 2-1-1q-8 1-9-2ZM305 338l5 1-7 1v-1l2-1ZM296 340l2 1h-2v-1ZM376 340l2 1h-2v-1ZM223 342l3 4 9 3 5 22-6-3h2q3 1 1-4l-1-5-1 5-3-4-1 2 1 1-4-5h2l-2-5-1 2 1 1-3-4 1-2-3-8ZM282 342l4 1h-4v-1ZM390 342l2 1h-2v-1ZM244 343v3h-1l1-3ZM277 343l3 1h-3v-1ZM271 344l4 1h-4v-1Z"/><path fill="#A8C9C0" stroke="#A8C9C0" d="M208 348v3h-1l1-3ZM233 364l1 2-1-2ZM461 380v4h-1l1-4ZM460 387v3h-1l1-3ZM457 403v5h-1l1-5ZM442 422l2 1h-2v-1ZM450 422l3 1h-3v-1ZM413 425q1 3 5 3h-3l-2-3ZM422 426l3 1h-3v-1Z"/><path fill="#E8C4B1" stroke="#E8C4B1" d="M237 28v5h-1l1-5ZM277 34v4h-1l1-4ZM243 39l2 5-2-1v-4ZM258 46h9v2l-2 1v-2q-5-1-4 2l-1-1q-3 1-2-2ZM274 47l-1 2 1-2ZM376 50v3h-1l1-3ZM232 51l-1 2 1-2ZM220 58l-1 2 1-2ZM384 65l2 1-3 2v-1h1v-2ZM411 66l2 3-2-3ZM380 68l4 5-4-5ZM386 73l2 2-1-1-1-1ZM418 75l2 2-1-1-1-1ZM426 78l5 7-2-1-3-6ZM432 86l1 3h-1v-3ZM379 90v6h-1l1-6ZM438 102v3h-1l1-3ZM456 107l1 1-2 1 1-2ZM197 109v4h-1l1-4ZM440 112v4h-1l1-4ZM372 118v8h-1l1-8ZM441 119v10h-1l1-10ZM196 120v11h-1l1-11ZM449 126l1 5q-1 3-3 0l2-5ZM452 127q2 1 0 3v2-5ZM330 128l1 2-1-2ZM455 129h9v2l-9-1v-1ZM334 131l33 1h2l20 3h-18l-2 4-3 2q-1 3 2 2 4 4 14 3l1-1h8q-1 3 2 2l8 3h27l8-2 3-2 1-4v3h4l12 5 1-1 4 4 6 1q-1 3 2 5l-10 3q1 3-1 2l-11 14-11 20v2h-2l-6-5-5-8-6-3-2 1 1-2-7-9q-7-6-16-9l3 5 3 3v2h-5q-2-3-3-1l-4-3-2-4q-5-1-3 4l10 11 9 3h4l3 2 1 3q-2 1-1 6l6 17 9 16 8 8 4 3h4l8-7 2-3h2v8l-19 8h-2v1l-3-1v2l-3-1-1 2-2-1-1 2-26 6-15 1-6 2h-11l-1 1h-54l-1-1h-12l-6-2h-8l-22-4-7-3-8-1-3-2 1-2h-2q1-3-2-2l-5-1 1-8q3 1 2-3h-1v1l-2-6 1-4 6-3 4-6v-2l4-1 8-7-2-2-4 1-2-1-3 1-1-6-4 3-2 4-8 1q1 3-2 2l-10 5-2-1-4 1-8-2-7-5h-3l-14-5 14-6 3-4v-2q2 1 1-2-4-1-3 2h-1v-3q5 2 4-2l2-3-2-3q3-2 1-8v-6l-2 1 1-4 1 1q0-5 4-6l9-4h3l5 3v1l2-1 10 4h3l1 2 4-1q-1 3 2 2l2-1q1 4 3 1l9 1 10-3 1 2 4-1q1 4 3 1 5 1 6-2v-2l4-8 11 3 9-12-7-4h-5l-9 8-1-1h-9q1-4-4-2-2 3-3-1l-5-2 14-2 4-2 4 1 1-1 15-1h5l6 4 2 2 10-2 3 6q-1 5 2 6 2 1 1-1l3 1q2 1 1-2l1-3q3 1 2-1l1-3q3 1 2-2-3 1-2-2l-1-4Zm17 3-5 4-7 8 15 4 9-14-7-2h-5Zm72 23-4 2-2-1v2l-1-1-3 2h-2q1 2-2 1l-2 4 5 3q2-1 1 2l3-1v2l2-1 11 5q4 1 6-2h2v-1h2v-1q1-3 3-1l1-4-2-2q-2-4-3-1l-5-2q-2-4-3-1-3 1-2-1h-1l-3-1v-1l-1-1Zm-100 7-4 3-2 3-7 6 4 2 12 2 9-12-1-2-11-2Zm8 15-2 2-2 14h11l2 1 1-1v-13l-1-2-9-1Zm77 38v2l-4-1v2l-3-1v2h-4l8 12h-2l-8-7-12 2-2 2h2l6 10 3 1-1 2h3v-2l4 1v-2l3 1-1-1 6-2-1-4 7 1-1-1 10-3q1-4-1-3l-3-4-8-5q1-3-1-2Zm-151 1-2 1-11 12 13 4 3-1 8-13-11-3Zm10 13-12 12v1l11 3h4l9-12-1-2-11-2ZM441 136v3h-1l1-3ZM453 136v3h-1l1-3ZM200 142l1 2-1-2ZM203 145v7h-1l1-7ZM189 146l1 2-1-2ZM192 148l4 4-2-2-2-2Z"/><path fill="#E8C4B1" stroke="#E8C4B1" d="M197 153v5h-1l1-5ZM479 156l-1 2h-2l3-2ZM512 208l3 2-12 1-7 3 1-2 15-4ZM529 213l4 5-4-5ZM493 214l1 1-13 9q-9 9-15 22l-7 24-1-3 5-17 6-12 11-16 13-8ZM534 219l1 2-1-2ZM201 236l1 2-1-2ZM220 236l7 5v2l-1-3-1 1-3-3-2-2ZM231 240l-1 2q1 2-1 1l2-3ZM231 253v17h-1l1-17ZM447 257q3-1 1 5h-1v-5ZM449 263l4 6-5-4 1-2ZM391 264l2 1h-2v-1ZM410 264l-1 2 1-2ZM404 266l-1 2h-2l3-2ZM304 268l3 1h-3v-1ZM361 268l2 1h-2v-1ZM455 269l2 2h-3l1-2ZM395 270l-1 2h-2l3-2ZM233 280v2l-2 1 2-3ZM387 281v3h-1l1-3ZM387 286v5h-1l1-5ZM192 293l1 2-1-2ZM195 296l1 2-1-2ZM389 298v3h-1l1-3ZM207 301l3 2h-1l-2-2ZM219 304l3 1h-3v-1ZM226 305l3 1h-3v-1ZM393 312l1 3-2-1 1-2ZM191 318l2 1h-2v-1ZM197 318l19 1h-19v-1ZM219 318l9 1h-9v-1ZM240 318l5 1h-5v-1ZM176 319v4h-1l1-4ZM187 319v3h-1l1-3ZM129 322v4h-1l1-4ZM118 323v3h-1l1-3ZM188 323v4h-1l1-4ZM401 325l12 1h-12v-1ZM445 325v3h-1l1-3ZM453 325l13 1h-13v-1ZM509 325h12l1 2v1l-1-2h-10l-1 1-1-2ZM178 328v3h-1l1-3ZM189 328v5h-1l1-5ZM440 330v5h-1l1-5ZM523 330v3h-1l1-3ZM127 331v4h-1l1-4ZM512 331v3h-1l1-3ZM116 335v3h-1l1-3ZM190 336v5h-1l1-5ZM313 337l3 1h-3v-1ZM399 337v5l-2 1 2-6ZM474 338l-1 2v4l-1-4 2-2ZM514 338v3h-1l1-3ZM115 339v6h-1l1-6ZM125 339v3h-1l1-3ZM243 339v3h-1l1-3ZM191 342v3h-1l1-3ZM525 343v4h-1l1-4ZM182 344l1 7h-1v-7ZM192 346v5h-1l1-5ZM244 346v4h-1l1-4ZM123 347v4h-1l1-4ZM516 348v3h-1l1-3ZM526 348v5h-1l1-5ZM113 352v4h-1l1-4ZM122 352v3h-1l1-3ZM517 352v3h-1l1-3ZM193 353v4h-1l1-4ZM396 354v4h-1l1-4ZM527 355v4h-1l1-4ZM121 356v3h-1l1-3ZM405 356v3h-1l1-3ZM518 356v3h-1l1-3ZM441 357l-1 2v5l-1-5 2-2ZM112 358v4h-1l1-4ZM443 358v3h-1l1-3ZM194 359v5h-1l1-5ZM404 360v3h-1l1-3ZM395 362v3h-1l1-3ZM528 362v4h-1l1-4ZM247 363v3h-1l1-3ZM119 364v3h-1l1-3ZM403 364v3h-1l1-3ZM111 365v3h-1l1-3ZM195 365v4h-1l1-4ZM467 365l-2 3 2-3ZM444 366v7h-1l1-7ZM394 367v3h-1l1-3ZM402 368v3h-1l1-3ZM418 368l1 3h-1v-3ZM441 368v3h-1l1-3ZM521 368v3h-1l1-3ZM529 368v3h-1l1-3ZM248 369v4h-1l1-4ZM196 371v5h-1l1-5ZM117 372v4l-2 8-1-3 3-9ZM401 372v3l-1 4-1-3 2-4ZM189 373v3h-1l1-3ZM522 373v4h-1l1-4ZM393 374v4l-1 6-1-5 2-5ZM242 375v3h-1l1-3ZM249 375v3h-1l1-3ZM109 376v5h-1l1-5ZM190 377v3h-1l1-3ZM197 378v4h-1l1-4ZM423 378l1 3-2-1 1-2ZM531 378v3h-1l1-3ZM243 379v3h-1l1-3ZM399 380v4h-1l1-4ZM108 382v6h-1l1-6ZM198 383v4h-1l1-4ZM244 383v5h-1l1-5ZM532 383v5h-1l1-5ZM391 385v4h-1l1-4ZM251 386l1 10h-1v-10ZM199 388v6h-1l1-6ZM107 389v3h-1l1-3ZM113 389v3h-1l1-3ZM397 389v3h-1l1-3ZM526 390l1 7h-1v-7ZM533 390v4h-1l1-4ZM194 394v3h-1l1-3ZM396 394v3h-1l1-3ZM106 395v3h-1l1-3ZM200 395v4h-1l1-4ZM389 396v3h-1l1-3ZM534 396v5h-1l1-5ZM195 398v3h-1l1-3ZM395 398v3h-1l1-3ZM528 398v3h-1l1-3ZM253 399v3h-1l1-3ZM248 401v3h-1l1-3ZM110 402v3l-1 4-1-3 2-4ZM196 402l1 8h-1v-8ZM201 402v3h-1l1-3ZM535 402l1 9h-1v-9ZM254 403v4h-1l1-4ZM393 405v4h-1l1-4ZM530 406v3h-1l1-3ZM202 407v3h-1l1-3ZM250 409l1 8h-1v-8ZM255 410v3h-1l1-3ZM392 410v3h-1l1-3ZM531 410v3h-1l1-3ZM103 411v3h-1l1-3ZM108 411v3h-1l1-3ZM198 411v3h-1l1-3ZM203 411v6l-2 1v-1h1l1-6ZM386 413v7l-1 3 4 1h-5l2-11ZM391 414v3h-1l1-3ZM532 414v3h-1l1-3ZM537 414v4h-1l1-4ZM256 416l-1 2h-3l4-2ZM390 418v3h-1l1-3ZM533 419l1 4q4 2 3-1h1v2h-5v-5ZM438 423l3 1h-3v-1Z"/><path fill="#D6A247" stroke="#D6A247" d="m254 14 4 2h14l2-1 2 6 1 13-2 10q-3-1-2 2 3 1-1 3l-1 2-7 4q2 9-3 11h-7l-9-7-2-7 1-3h2v-2l-1-2 1-2q-3 1-2-1l-3-7-4-1v-7h6l3 1 2-13 6-1Zm1 11-4 1v3h7l1-2q-1-3-4-2Zm11 0v3q1 2 7 1 2-1 0-2v-2h-7Zm-12 6q-2 6 3 4l1-2-4-2Zm13 0q-2 5 3 4l1-2-4-2Zm-4 9-8 3 2 3q2-1 1 2l4 1h2l2 1 1-2v-2h-6v-1q2-4 4 0 7 2 6-2l-8-3ZM382 40l6 1 1-1 3 3 2 2q-1 7 4 9l2-1q-1-5 2-6h3v7q-6 3 0 6-1 2 2 1h1l-1 2 1 3-10 6q-7-1-10 2v-2l-3 1q-7-3-8-11l1-6q3 1 2-2l-4-3 4-2-1-3h-2v-5l5-1Zm2 6 2 4h5v-2q-2-3-7-2Zm0 6v3l3 1 1-2-4-2Zm-1 12v2h-2l2 2 3-2-3-2Zm1 6 1 2h1l-2-2ZM376 41v6h-1l1-6Z"/><path fill="#D6A247" stroke="#D6A247" d="M377 56v4h-1l1-4ZM459 107l-1 2 1-2ZM456 118l3 1 4 10h-8l-1 1-2-3-3 1q-1-3 4-2h2q2 1 1-2l-2-4 2-2Z"/><path fill="#D6A247" stroke="#D6A247" d="M453 121v3h-1l1-3ZM323 126l7 4v1l2-1q3 3 4 9l-2 4q-3-1-2 2l-1 3-3-2-1 2-3-1v-5l-3-6-10 2-2-3h4l10-9ZM449 129l2 3q4 1 5-2h5v1l-2 1h5l1-3h2q4-1 5 3 1 6-3 8l1 2 11 7-3 8-6 1-2-3h-2l1-2-6 1-7-5-3-7v-5l-2-4q-3 1-2-1v-3ZM371 135h19l3 1-1 8-10 2h-8l-4-1v-2h-2q-3 1-2-2l5-4v-2ZM268 140q6-1 5 2h8l-1 2-1 3 3 2-2 5h-2l1 2-3 4h-5l-9-2-3-5v-6l9-7ZM412 161l1 1-5 2 1-2 3-1ZM196 162l1 2v13l2 3q-3 1-2 4-6-2-4 3l3 2-3 4-14 6q-1 2 3 1l26 11h11l18-8 5-7q3-1 1 4l1 2 10-1 1 2-3 3q-4 5-10 5-1 7-6 10l-3 2q1 3-1 2v2l1 3h-1l-1-4-7 6 1 1-4-1q-1 3 2 2l2 5-2-2-4 2 6 3h1q-1 3 4 1 1-2 6-1l3 2-3 2-1-1 1-2-4 1 1 2-2-2-2 1q-2-2-7-1l-4-2-2 1q1-3-2-2-3-1-2-5l3 1 1-2 2 1h1l-1 2 3-2h1l-1-2h-10l-4 1-8-2-2 4-11 2h-12q-7-17-20-28l2-7 5-7 3-1-2-3 1-2-2 1 1-2q8 1 10-4l-1-13q1-3 5-2 2 3 9 2l4-3v3q5 1 6-3l-2-4 3-4Zm-3 11-2 3 3 1v-4h-1ZM424 162l5 1-1 3-3 1-3-1 2-4ZM440 164l2 2h-1l-1-2ZM394 166h2q11 5 18 14l2 4-8 5q1-3-1-2l-2-2h-4l-9-3-7-6-3-5v-4q4-1 5 3l4 4 8 1q1-4-2-5l-3-1v-3ZM438 167l-1 2-4 2 1-2 4-2ZM230 234l-1 2 1-2Z"/><path fill="#D6A247" stroke="#D6A247" d="M233 236v2l-1 2-1-1 2-3ZM227 237q4-1 3 2-4 1-3-2ZM196 239l2 1v5h-8l-1 1h-11l-3-4 5-2h15l1-1Z"/><path fill="#D6A247" stroke="#D6A247" d="m205 240 4 2 2-1 2 1 2 3 5-1 2 3 2 1q1-2 3 1 2-1 1 3l2 2v17h-1v-2l-2 5-4-2h-7l2-1q1-3-3-2l-2 1v-2h-5q1 4-2 3v-4l-2 4 2 2h2q2 1 1-1h1q0 3 7 1l4 1q1-2 3 1l4 2-1 1h-9q-1 3 3 2l-2 3-3-1q-9 1-11-4v-3l-1 2h-2l-5 5-6 9-4-7-5-23-4-13 21-1 1 3 4-8 1 1v-3Zm7 7-2 3 4 1q2-1 1 2 2 4 4 1l2 1 1-4-3 1-1-2-6-3Zm10 7v2l4 1 2 3v-4l1-2-2 1-5-1Zm-8 4-2 2q-5-1-3 3h5q1-3 4-2l-1 4 9 2 2 2v-4q-4 1-3-2h-4v-1l-7-4Zm-10 1q-3 4 2 3l-2-3Zm4 18v1q2-1 1 2l2-1q1-3-3-2ZM241 247l1 2-1-2ZM244 249l2 1h-2v-1ZM249 250l2 1h-2v-1ZM277 256l2 1h-2v-1ZM388 256l3 1h-3v-1ZM284 257l4 1h-4v-1ZM379 257l4 1h-4v-1ZM440 258h7v4l6 7q2-1 1 2h3v3l-6 21-6 8-15 6-18 2-18 5-7-21q1-7-1-10l3-11 17-8 10-2 3-2 21-4ZM303 259l3 1h-3v-1ZM362 259l3 1h-3v-1ZM320 260l27 1h-27v-1ZM224 280q3-1 2 2l-2-2ZM228 280q3-1 2 2l1 1-3-1v-2ZM217 284q3-1 2 4l-4 3v2l-5 5-4 1v-1q3 1 1-3h5l1-3 2-3 2-5ZM120 319h9v3q-2 1-1 6l-2 2v6l-2 4v4l-2 4v4l-8 29v5l-6 20-1 10-1 1-4-2 4-17v-5l2-5 1-14 2-6 2-18 2-5 1-13 3-9-1-2 2-2ZM176 319h10v3l2 6 1 13 2 5 2 18 2 6v6l4 21q-2 1 1 3l1 7-1 5 1 4h-1v-2l-1 2-1-1 1-4h-2l1-4q-4 1-2-4l-6-21 1-2-4-10-2-12-2-4v-6l-7-23v-6ZM228 319h11v4l4 20v7l4 17v6l3 12v8l2 4 3 20h-4v-2l-7-26-2-13-5-15-7-34-2-8ZM398 326h40l1 2 1 30q-2 1-1 6 3 1 1 7l2 2-7 1-12 6-1-2 1-2h-2l1-2h-2l1-2h-2q1-4-2-5l-4-1-5-12q-4-1-3 2l-6 20-1 9-2 5-2 13-2 3-3 17q-5 2-4-2l1-1v-9l2-6 1-11 4-16v-7l2-6 2-21 2-2v-11l-1-5Z"/><path fill="#D6A247" stroke="#D6A247" d="M445 326h30v3l-6 29-5 11q-3-1-2 3l1 2h-2l1 3-7-2-3 1-11 47q-5 2-4-2l2-5 1-13 2-6 3-22-1-5v-2l-1-2v-16l1-1v-14l1-1v-8ZM510 326h11v2l3 15-1 2 2 3 2 18 3 10 4 32 2 4 1 11q-4 2-3-1l-2-3v-4l-4-12-1-9-4-14 1-2h-2q-1-13-5-22v-2l-3-10v-5l-2-3v-4l-2-6Z"/><path fill="#261A1A" stroke="#261A1A" d="m251 4 3 1 1-1h11q6 1 9 6l3 10-2-1-2-5-16 1q-2-3-6-2l-2 1q-2-2-3 1 1 8-2 12l-6-2q-2-11 3-16l9-5ZM278 21v6h-1l1-6ZM398 24l10 3 5 6-2 20-4 7q-7-3-1-6l1-4-3-5-4 1-1 6-3-1q-1-7-4-11-3-2-10-1l-5 1q-4-1-3-5l4-6q6 0 10-4h7l3-1ZM256 26q2-1 1 2l-3 1-1-2 3-1ZM268 26l5 2h-4l-1-2ZM268 32l2 1-2 1v-2ZM261 42v2l-4 1q-1-3 3-2l1-1ZM264 42l5 1q1 3-3 2l-2-3ZM377 47q3 2 0 3-3-1 0-3Z"/><path fill="#261A1A" stroke="#261A1A" d="m387 47 2 2h-3l1-2ZM471 102l16 1 3 3 5 6 2 2v11l1 2-2 6v6q-4 0-3 6l6 7 10 10 6 11 1 12-2 7-5 7-5 4h-3v-3l-5-5q-3-3-2-8l-2-4-5-3-1-3 1-2-4-5v-7l-3-4v-5l2-8-8-2-1-3-3-1 2-3 1-5-1-3-8-1-5-10-6-2 3-7h2l6-5q5 1 7-2Zm16 41v1h2l-2-1ZM454 123q2-1 1 2l-1-2ZM181 143l14 10v9l-8 9-7 1q-2-3-8-2l-3 5q3 3 2 10-3 6-13 4l-3-4-10 1-5-2 2-6-5-3-1-5 1-4q-2-2-1-6l3-2-1-3 5-4 11-1 3 1 7-6h10l7-2ZM193 169l1 1-4 2q-1-3 2-2l1-1ZM407 220h2l9 10-1 1-9 2-7-7-1-4 7-2ZM392 227h2l9 10-10 3q-6-4-8-11l7-2ZM201 234l1 2q-3 1-1-2ZM449 245l-1 2h-2l3-2ZM270 262l2 1h-2v-1ZM396 262l2 1h-2v-1ZM295 266l3 1h-3v-1ZM307 267l5 1h-5v-1ZM357 267l2 1h-2v-1ZM238 288l1 2-1-2ZM241 294v3h-1l1-3ZM235 305l2 1h-2v-1ZM198 320v15l1 1-2-1 1-15ZM221 326v4h-1l1-4ZM213 327l-1 2v2l-1-2 2-2ZM225 342l1 2q-3 1-1-2Z"/><path fill="#1E764C" stroke="#1E764C" d="M242 48q3-1 2 2-3 0-2 5 3 7 10 11l8 1 5-3q-1-6 1-7l-1-3q3 1 5-2h5l9 7 11 19v1q2-1 1 2l10 24v1q2-1 1 2l17 15 1 3-2-1-10 9h-4l-10-3-8-5-4-5-6-14q-4-1-2 5l-3 10v11l-15 2-3 2 7 3q1 3-1 2-2 3-5 2-2 3-1 10l1 2q3-1 2 2-4 3-12 2l-11-2-7-3h-4l-13-6h-3l-6 4-2-8q-5-3-6-8l-1-15 1-1 1-16 2-2 10 5 17 2q1-3-2-2l2-3 2-1 8 2h12l22-4 10-6-1-2 2-3q-2 3-7 2l-4 3h-5l-2 2h-6l-5 2q-2-2-7-1l-5 1-1-1h-8l-5 1-16-3-9-5q4-20 17-32l23-12Zm53 33-9 6 1 2-3 6h2l3-5 5 1 2-3v-4l-3 5q-4 1-5-1l3-2q1-4 3-1l1-2v-2Zm-13 4-9 5-15 4-27 2 3 1h16l7-2h5l13-4 7-4v-2Zm15 5-13 7-1 2q9-3 16-8l-2-1Z"/><path fill="#1E764C" stroke="#1E764C" d="m202 94-1 2 1 6-3-2 3-6ZM204 95l7 3 1 2h2q5-2 4 2l-4 2-4-5-5 1q-3-1-1-5ZM275 95l3 1-4 3-10 3h-5l-6 2h-18l-6-1q4-3 11-2 1 2 6 1 1-2 6-1l3 1 5-3 5 1 4-3 2 1 4-3Z"/><path fill="#1E764C" stroke="#1E764C" d="m209 101 4 5 6-2 3 4q-12 0-19-5l6-2ZM220 101l7 2q0 3-4 2l-3-4ZM295 146l-1 2 1-2ZM408 164l18 8 5 1 8-4-2 3-5 3h-4l-20-9v-2ZM436 164l2 2h-1l-1-2ZM440 167l2 1-2 1v-2ZM418 228q3 2 0 3v-3ZM391 238l1 2-1-2ZM202 277l2 3 11 5-4 7-5 2-3 5q-7-1-10-5 1-3-1-2l1-2 9-13ZM221 283q8-1 11 1l1 2 2-1 4 5 1 1v1q2-1 1 2l-1 3q3 0 2 5l-1 2 2 4h-1v-2l-1 2-1-2-2 1-1-2-4 1q-5-3-12-2 1-3-1-2l-6 1v-2l-4 1q-1-4 3-5l3-2 5-7v-5ZM201 319q5-1 6 2 1-3 7-2v2q2-1 1 2l-1 4-2 1 1 2h-1v-2l-1 3 1 2h-2l1 3-3 5 1 1-8-4h-4l1-3v-15l3-1ZM220 319l7 1 6 27-9-2 2-1-3-1-2-6 1-2h-2l-1-10 1-2v-4Zm1 7-1 4h1v-4ZM241 319l1 2h1v10l-1 1-1-4 1-2h-2l1-7ZM439 374q6-1 5 2l-1 2q2-1 1 3-3 1-1 3l-6 39-19 4h-2l-3-1q0-4 3-5 10-2 15-9 3-3 2-10-5-6-6-15l-3-4q5-7 15-9Zm-2 9v1h3l-3-1ZM453 376q5-1 7 3l-1 3 1 2-5 22 1 2v1q3-1 1 5l1 5q-2 5-10 3l-2-1-2 1-2-2 9-36h2l-2-1 1-4h2l-1-3Z"/><path fill="#FED99D" stroke="#FED99D" d="m215 51 16 1-11 6-6 6-11 19-5 17v2l-2 8-1 21 2 9 4 4 1 1v7l1 2-5 4v2q0-8-4-11l-9-6-5-1v-30l1-1v-10l1-1 1-12 5-15q5-10 13-16l9-5 5-1ZM418 54l10 1 13 6q-1 3 2 2l3 2 9 16 4 11v5l2 8q-3-1-2 2-1 2-2 0l-3 2q-3 2-2 8l3 2-1 2h-2v5h-4v2l-1 3 5 3q0 11 6 18l-2-2-12-5h-4l1-6v-19l-3-12v-5l-2-3-3-12-7-10-5-1-6-3-4-8-3-1q-1-7 2-10h7l1-1ZM378 93v5l-6 16-2 18-3-1 5-19v-4l6-15Z"/><path fill="#FED99D" stroke="#FED99D" d="M451 128v4h-1l1-4ZM417 158l1 1-3 1v-1l2-1ZM198 162v4h-1l1-4ZM198 167v8h-1l1-8ZM389 170l1 2-1-2ZM414 170l3 2h-1l-2-2ZM340 180l1 4h-1v-4ZM328 194l4 1h-4v-1ZM160 197l-2 3v1l-1-1 3-3ZM180 199l3 2-1-1q-3 1-2-1ZM121 203h11l8 2 13 7 2-4v2l-1 2q14 10 20 27h12l11-2 1 3-2-1-1 1h-15l-5 2 3 4 18-1q1 2 2 0l1-3v3q-2 1 1 3v2l-1-3-21 1 4 13 5 23 6 11q2-1 1 2l6 3h3l6 3 32 5 11 9q1 2-1 1h-2l-20 1-1-1h-9l-2 1-1-1h-19l-3 1-3-1-1 1h-15l-2-1-1 1h-48l-2-1-1 1h-10l-6-4q1-7-2-9l-1-14-2-3q2-7-1-8v-10l-2-11v-14l1-1v-10l2-10 7-15 3-1q-1-3 2-2l9-4ZM194 204l3 2h-1l-2-2ZM229 204l4 1-3 1-1-2ZM199 206l2 2h-1l-1-2ZM227 206l1 1-5 2v-1l4-2ZM516 209q12 1 17 10l5 9 3 12 1 28-1 1v16l-2 8v7l-2 6v6l-2 9-3 4-5 1-3-1-2 1-1-1h-45v2l-10-2h-13q-2 3-7 1-2-2-6-1l-1 1h-25l-1-1h-12l-3 1-1-1h-9q-1-5 4-6 3 1 1-3h2l17-5 18-2 15-6 3-3 5-11 4-19q3 1 2-3l10-27q6-11 15-19l13-8 19-4ZM208 210l2 1h-2v-1ZM243 212l-1 2 1-2ZM239 218l-1 2 1-2ZM404 218l2 1h-2v-1ZM235 230v4h-1l1-4ZM403 231l2 4-2-1v-3ZM211 234q3-1 2 2l-1-1-1-1ZM232 240v2h-2l2-2ZM396 241l2 1h-2v-1ZM392 242l2 1h-2v-1ZM241 244l2 4-3-2 1-2ZM427 246l2 1h-2v-1ZM444 257l2 1h-2v-1ZM392 272l-1 2h-2l3-2ZM389 275l-1 2v1l-1-1 2-2ZM391 307l1 3h-1v-3ZM445 328v5h-1l1-5ZM474 334v4h-1l1-4ZM440 335v10h-1l1-10ZM444 342v6h-1l1-6ZM441 347v10h-1l1-10ZM411 360l2 5-2-1v-4Z"/><path fill="#D9E8FE" stroke="#D9E8FE" d="M597 45h18l11 3q12 5 19 16l7 11 8 21 7 34 1 23q-3-1-2 2l-1 2-1-2q-3 1-1 3 1 2-2 1v-2l-7 4q-2-2-3 1l3 1-1 2-1-2-3 2 1 2-1-1-5 3 1 1-4 1 1 1h-2v1l-1-1-3 3-2 1 1 1-3-1-4 1q1 3-1 2v2q-4-1-3 2 2 1 0 2v-2l-3 2-3 4 1 1-4-1v1q2-1 1 2l1 1-3-1q1-3-1-2l-1 3-3-1v2l-4-1v3l-2-1-4 5-4 2 1 3-3-2-2 3q-6 0-8 4l-1 2 2 4-2 1v-2l-1 3q-3 1-2-2l1-2-11 8 1 1-2-1-6 7-2 1 1 2h-2l-2 1 1 1-3 2-2 3v1l2 1h-4l-1 2q-4-1-3 2l-3 1 1-3-4-3q-1-5 2-7l-2-7-3 2-3-6 1-2-4-3q1-3-1-2l-3-4-9-2 2-1-1-3-3-1-1 2 1 1h-2v-17q3-5 2-13-3-3-2-9l-1-2q-3 1-2-1l-7-10-9-6q-2-2-1-8l4-15-2-7 1-4-3-5h-2l1-2-3-1-2-4q-3 1-2-2h-5q1 3-3 2-1-3 2-2 32-22 69-40l3 1v-1h-2l6-3v2q2 1 1-2h1l2 2 1-2h-2q-1-3 2-2l2 3 12-6v-2l2 1 1 1 6-3v-2l1 1q-1-3 4-2l7-2Zm-43 15q-1 3 2 2 1-3-2-2Zm49 2-2 2 2 2 2-1-2-3Zm41 6v2l3-1-3-1Zm-22 16-2 2q-1 2 2 1v-3Zm-108 4v7h3v-2l-1-3h2l-4-2Zm98 2 2 3v-1l-2-2Zm-21 5-1 2-1-1-3 1q1 4 6 3 1-4-1-5Zm-95 13q-2 3 1 2l-1-2Zm146 9v2l2-1-2-1Zm-142 1-1 3h1v-3Zm14 0v1h2l-2-1Zm-15 17-1 4 2-1-1-3Zm-3 6v6l5 2q1-3-1-2v-1l-2-2v-1q1-3-2-2Zm8 11 1 2q1-3-1-2Zm5 5 1 2q1-3-1-2Zm10 16-2 2 1 1v8l2 1-1-3 1-3-1-6Zm38 9q-2 5 3 6v-3l-3-3Zm50 2-2 2q-1 2 2 1t0-3Zm-81 3v2h3l-3-2Zm-8 3-1 3h1v-3Zm62 22v2l2-1-2-1Z"/><path fill="#D9E8FE" stroke="#D9E8FE" d="M583 48v2l-4 1q-1-3 3-2l1-1ZM574 51v2h-4l4-2ZM28 75h36l1 1 21 2 6 2h7l22 5 10 1 41 10 9 1-1 3 1 1v8q-3 1-1 3v11h-1v4h-2q-1 3 2 2h1l-2 9 1 2-2 1 2 1-7 2h-6l-6 3q1 2-1 1l-2 1 2-4-3 2h-3l-2-1-13 7-1 3v3h-5v2h2l1 5q-4 1-2 8l3 2 2 5 1-2-1-3 3 3q-3 2-2 6l3 1h12l1 2q-1 2 2 1l6 6-1-1-4-2-1 3q3-1 2 3l-2 3-1-3q-3-1-2 3 2 1 0 2-3-1-2 3l3-1-2 7-2-4h2l-3-3-4 3-1-2h-3q2-4-2-3l-3 1q-2-2-7-1l-2-2h-5l-4 2q-2-2-3 1l-9 5-2 5-15-28-17-22h-1l-10-9q1-3-1-2l-19-16-1-3-9-7-18-23-4-9v-8l5-7 13-5Zm52 21q-2 3 1 2l-1-2Zm-3 14-2 3h2q3-1 0-3Zm102 5-3 1v1q3-1 2 2h1v-4Zm-130 1-3 5 3 1 2-4h2q-1-3-2-1l-2-1Zm88 35-2 2h2v-2Zm-26 27-2 4q-1 3 2 2l1-2q1-5-1-4Zm31 9 1 1 1 1q1-3-2-2Zm11 0-2 1v1q2-1 1 2l2-1q1-4-1-3ZM283 121l3 3 1-1 3 2 4 4 3 3-1-1-6 2h-9l-1 1-1-2q4 2 3-1l-3-2v-6q4 1 4-2Zm9 8 1 2h1l-2-2ZM469 155l1 3h-2l1-3ZM668 156v7q-3 1-1 3l-2-1-2 3-1-1q4-2 1-3-1-3 2-2h2l1-6ZM661 162l1 2-1-2ZM322 169l2 1-2 1v-2ZM667 169v2l-1 2-1-2 2-2ZM656 171l-1 2 1-2ZM644 172q2 1 0 3l1 2-2-1 1-4ZM639 174v4l-1 2-1-1 2-5ZM654 175l2 1q-2 3-2-1ZM666 176l-1 2-3 9-1-1 2-4-1-3q3 1 2-1l2-2ZM646 178l1 3h-4l2-1 1-2ZM640 179l2 1 1 3h-2q1-3-1-2l-2 1v-1q2 1 2-2ZM654 179l5 3h-2l-2-1v2q-3-1-1-4ZM650 181l-1 2 1-2ZM335 183l-2 3 2 1 2-3v5l-1 3-4-1 1-4-1-3 3-1Zm-2 5q-1 3 3 2 1-3-3-2Z"/><path fill="#D9E8FE" stroke="#D9E8FE" d="m628 183 4 1 2-1 3 2q2-4 5 1l1 1h-1l-3-1v-2q-3 4-5 3v1l-1-2 1-2q-3-1-2 2h-4v-3ZM653 184q3-1 2 2l2-1 1 1q-3 0-3 5l3 1q-2 3-4-1l1-4-2-1v2l-1-2q2 1 1-2ZM195 185l2 1q-2 3-2-1ZM625 186q3-1 2 2l-1-1-1-1ZM646 186l1 2-1-2ZM639 188l1 3h-1v-2l-2 1 2-2ZM642 188l3 2v1l1 1h-3l-1-4ZM660 188l2 1-3 1 1-2ZM626 189v2l-2 1 2-3Z"/><path fill="#D9E8FE" stroke="#D9E8FE" d="M622 190q3 2 0 3l-2 1v-3l1 1 1-2ZM631 190l3 3h-1l-2-1-2 1-1-2q1 3 3-1ZM660 192v2l-2 1 2-3ZM639 193l1 2q-3 1-1-2ZM615 194l2 2q1 2-1 1v-2l-2 1 1-2ZM622 194l1 2-2 1v-1l1-2ZM642 194q2-1 1 3l1 1-2-4ZM611 195q2-1 1 2l-1-2ZM625 195v2l2 1h-1l-1-3ZM631 195h2l3 2-4 2-1-4ZM607 196l2 2 1 2-1-1q-3 1-2-1v-2ZM658 196l-1 2-1 3-1-3-4 1-1-2 3 1 5-2ZM603 197l1 2q-3 1-1-2ZM629 197l1 3-2 1 1-4ZM619 198l1 3h-1v-3ZM642 198l5 5-3 2v1l-4-2 1-2v-2h1v-2ZM635 199l1 1h-2l1 3-6 2 1 3h-1l-1-5q-2 2-3 0l3-1 2 1 3-1 2-3ZM616 201l-1 2 1-2ZM608 202q2-1 1 2l-1-2ZM618 202l2 1 2-1v3l1 1q1-4 3 0l-3 1 2 2 2-1v1l-2 1 2 2h-2l2 3 2 2h1q1 2-1 1l-2-3q-3-1-2 2l1 2-2-1 1-3-1-5-2-3-1 2-1-3 1-2q-4 0-3-2ZM636 202l2 1-2 1v-2ZM650 202l4 1h1q-1 2-5 1v-2ZM601 205l4 1-3 1 1 1h-3l1-3ZM610 205l1 1-2 1 1-2Z"/><path fill="#D9E8FE" stroke="#D9E8FE" d="M617 205q2-1 1 2l-1-2ZM607 206v2l-2 1 2-3ZM613 206v2h-2l2-2ZM646 206l2 2h-2v2l-2-2 2-2ZM650 206v3l-2 1 2-4ZM595 207q3-1 2 2-3 1-2-2ZM635 207l-1 2 1 3-2-1 2-4ZM589 208q3-1 2 3l-2-1v-2ZM593 208v3h-1l1-3ZM617 208l1 3h-1v-3ZM641 208l2 1h-2v-1ZM606 210l1 4-3 2q4 1 1 3l1 5-2 1 5 1 1-2v4l-2-2-3 1-1-2-4 2v-1l4-2 1-6q-4-2 0-4l1-4ZM612 210l2 1q-1 2-5 1v-1l3-1ZM644 210v3l2 1h-3v2l-1-2h-3l3-1 1 1 1-4ZM597 211l-1 2q1 2-1 1l2-3ZM621 211v2l2 1h-6v2l-3-1 7-4ZM593 213v2h-2l2-2ZM633 213l2 2h-1l-1-2Z"/><path fill="#D9E8FE" stroke="#D9E8FE" d="m641 215 1 3-3 1q1 3-2 2v-3q-2 2-3 0l3-2 1 2h2l1-3ZM587 216v3h-1l1-3ZM591 216l2 2 1 1 1-2v2q-3 1-1 3v1l-2-2v-2q1-3-1-2v-1ZM598 216l2 1-2 1v-2ZM608 216q4-2 3 3h-1v-2l-2 1v-2ZM614 216l2 1-1 3h-3l3-1-1-3ZM603 217v4q1 2-2 1l2-5ZM584 218q2-1 1 3h-1v-3ZM589 219l2 2h-1l-1-2ZM622 219v4h-1l1-4ZM577 220l2 2-1-1-1-1ZM583 220l1 3 2 1-1 3q1 2-1 1l-2 1 3-4q-4-1-3 2l-2 1-4-2 2-1h2l3-1-1-1-2 1 3-4ZM617 220l1 4-2-1 1-3ZM573 221v3h-1l1-3ZM611 221l-1 2 1-2ZM596 223l4 2h-3l-1-2ZM634 223v2h-2l2-2ZM568 224l2 1v2q-3 1-2-3ZM592 224q4 0 4 3l-2-2-3 1 1-2ZM616 224l1 3-2 3 3 2h-1l-4-2 3-4v-2ZM622 224l1 2-1-2ZM631 224v3l-2 1 2-4ZM540 229l1 4h-1v-4ZM622 229l2 1q1-2 2 1l-4 2-1-2 1-2ZM570 230q3 2-1 4h-2l3-2v-2ZM590 230v3q-1 3-3 0h2l1-3ZM579 231q2-1 1 2h-3l2-2ZM563 232v2h-4l4-2ZM596 233l3 2h-3v-2ZM605 233l1 2h-6l5-2ZM565 234l2 2-2 1 1-2-1-1ZM575 234q3-1 2 3 2 1 0 2h-2l1-2h-2l1-3ZM579 234l2 2h-1l-1-2ZM199 235l5 5v1l-4-3v2l1 4h1l-1 4-2-3v-10ZM563 235v2l-2 1 2 1-2 3 1 3h-3l1-2-1-3h2l-1-2 3-3ZM614 235l2 2-2 1v-3ZM568 236l2 1-1 2-1-3ZM597 236l-1 2 1-2ZM599 236l4 1v2l-3-1-1 2-4 1-1-2q4 1 5-1v-2ZM589 237v3h-1l1-3ZM609 237v2q-3 1-1 3l-4 1q-1-3 2-2l3-4ZM585 238l2 1h-2v-1ZM612 238l-1 2 1-2ZM573 239l-1 2 2 2 2-1q-2 5-5 0l2-3ZM557 241q2-1 1 2l-1-2ZM583 241l-1 2 1-2ZM587 241l2 1q1 3-2 2v-3ZM600 241l1 3h1l-1 2-4-1 2-1-2-1 3-2ZM543 242v12l1 1-1 4 1 3-1 4 3 4 2 2q1 3-1 4l-5 3-1-4 1-1 1-32Zm1 29-1 4 2-1-1-3ZM553 242q2-1 1 2h-3l2-2ZM564 242l2 2q-1 3-3 0l1-2ZM593 242q2-1 1 2l-1-2ZM549 245l2 3 2 1 4-3v3l1 3-2 1 1 2-2-1v-2l-2 1 2-3-2 1-1-2-1 3q-3-1-1-2v-2l-3 1 2-4ZM584 245l1 5h-1v-5ZM569 246l1 2-1-2ZM590 246l1 3 7-3v1l-8 5 1-2-1-1v-2l-1 3-1-2 2-2ZM448 247l2 1-3 4 1 2q-3 1-2-1h-3l2-1-2-1 5-4ZM546 247v3h-1l1-3ZM573 247l1 3-2-1 1-2ZM562 248l2 1-1 2-1-3ZM582 249l1 4h-2l-1-2 2-2ZM439 251l3 2 1 2h-2l1 2-1-1-6 3h-5l-13 4h-4l-4-1-1 3-13 5q-2-2-3 1l-1 2q-3-1-2 2-3 1-2 4-3-1-2 2v2l-1 2q3 1 1 7h-2l1 2h3v4l4 11v4l-2 1 1 1-3 3-1 3 2 1 1-2v2l-3 1 2 3 3-1 2 1q-1 4 2 3v-2q-1-3 2-2l1 8-3 2-1 3h-2l1 3q4 2 3-2l2-3v6l-2 1-7-2-15-1-5-4h-4l-1 1h-9v-67l1-1h8l1-1h9l15-3h7v2l7-3q-1-4 5-2l15-4 3 1 2-3 11-5Zm-3 3-3 1 1 2 3-2-1-1Zm-42 12q-2 3 1 2l-1-2Zm-18 2 1 2 2-1-3-1Zm-7 1v1h5l-5-1Zm-10 2-2 2h4q1-3-2-2Zm-2 3v2h3l1-1-4-1Zm31 29q-5 2-2 4-1 3 2 2v3h2l-2-9Zm-29 29-2 4h5l-1-2-2-2ZM566 251l4 6q2-1 1 2v1q2 1 1-1h1q1 3-1 2l-4 3-1-2h2l1-3q-2-5-3-2h-2l2-1v-2l-2 1v-2l1-2ZM571 252l2 1-3 1 1-2Z"/><path fill="#D9E8FE" stroke="#D9E8FE" d="m579 252 1 3 7-3-1 2-7 4-1-2h2l-1-4ZM232 253l11 7q-1-3 4-2l4 2 11 2v2h3q-1 3 2 2l3 1h2l-2-1 7-1 7 2h8l10 2h11l1 1 2-1v1q-3-1-2 2-2 1 1 2 2-1 1 2l-1 2v4l1 3-1 4v2l1 3-1 5q3 1 1 7v2l-1 3 1 2-1 4v2l1 4-1 2 1 3-1 2 1 2-1 3q3-1 2 2h-7l-2-2-8 4 1 1h-7l-1 1-23 3-3-1q2 4-1 3l-7 8 2 1h134l-1 12q-3-1-2 2-3 1-2 6l1 1v8l-2 8-5 1h-11l-1 1h-11l-1 1-28 1-1 1h-13l-1 1h-12l-1 1h-12l-1 1h-13l-1 1q-12-1-19 1l-2-3-1 3q-3 1-2-3l-2-6v-6q3-3 2-8l-3-1-2-4-4-27h1l1 1v-2l-2-6 1-2-1-3 2-4-1-3 1-3q-2-2 1-3 1-3-1-2v-1h6v-2l1-2-8-5 1-5-4-8v-3l-4-8-3-1 1-2-1-4-1 4h-2l1-4h-2l2-3 1 1v-6h-3l1-18Zm0 3q-1 5 3 6l1-3-4-3Zm23 6v1h2l-2-1Zm24 6v1h4l-4-1Zm8 0 1 2h9l-10-2Zm-46 18q-2 3 1 2l-1-2Zm24 17-3 2q2 3 3 0v-2Zm-13 7q-3 2 0 3 3-1 0-3Zm10 9q0 3-2 2-3 2 0 3 2 1 1-1 4-2 1-4Zm49 16v1h3l-3-1Zm-38 4-3 4 7-1-4-3Zm9 0-2 2h2v-2Zm-20 8-4 1-1 5 6-5-1-1Zm2 9-3 2 3 1q3-1 0-3Zm4 0 1 2q1-3-1-2Zm26 0v1h3l-3-1Zm13 0v1h2l-2-1Zm84 0-2 2h3q-1 2 2 1 2-4-3-3Zm-106 1v1h2l-2-1Zm27 0v1h5l-5-1Zm17 0v1h3l-3-1Zm17 0v1h3l-3-1Zm21 0v1h2l-2-1Zm-118 1v6l1-3-1-3Zm142 1-2 2h3l-1-2Zm-72 12-1 1q-3-1-2 3l3-2v-2Zm69 17-2 2h2v-2Zm-68 2-2 3h2v-3ZM563 254v2l-1 2-1-1 2-3ZM577 254v4l-2 1 2-5ZM552 257v4l5 3v1l-1-2q-4 1-5-2l1-4ZM554 258l2 2-1-1-1-1ZM560 259l-2 3-1-2 3-1ZM550 260l-1 2q1 3-3 1v-1l4-2ZM562 262l-1 2v1l-1-1 2-2ZM565 262q3-1 1 3h-3l2-1v-2ZM559 265l3 2-4 1 1 1q-3-1-1-2l1-2ZM556 269l1 1-3 1v-1l2-1ZM552 270v3h-1l1-3ZM101 290v2l-2 3v-1l2-4ZM101 295v6q4-1 2 6l4 12h10v8l-1 3-3 2q4 1 1 3l-2 1h2v10l-2 5-2 19q-3-1-2 3l-1 2-2 1 2 2v10l-3 15-1-5-2 4-2-1-4 1-22-6-12-8q-5-5-3-17l5-10v-3l12-22q3 1 2-2 13-17 20-38l4-1Zm0 13v2l2-1-2-1Zm13 12-1 2v2h2l1-3-2-1Zm-2 22-3 4 3 1v-5Zm-29 3-1 3 1 2q-1 2 2 1l-1-1 2-3-3-2Zm-20 17q-3 4 1 3l-1-3Zm5 10v6l3 1v-4h-1v-1q1-3-2-2Zm20 16-2 2 3 1q2 1 1-2l-2-1Zm15 2v2l2-1-2-1ZM130 319h45v7l-1 2 3 1 5 22-2 3v2q-1 3 3 2h1l4 16q-1 9 2 13l1-2 4 20h-1v-2l-2 2h-58l-21-1-3-1 3-15h2q-1-4 2-3l2 1 1-2-2-4-2 1 5-22 1 1q-1-3 2-2 2-1 1-5-4 1-2-5l4-16q3 1 2-2h1q-1 2 2 1v-6q-2 2-3 0l1-6Zm4 1-1 3h2l3 1 1-3h-1l-4-1Zm35 0q-1 6 3 7l2-5q-1-3-5-2Zm-41 17-1 3h1v-3Zm-2 4v2l4-1-4-1Zm50 0q-1 3 2 2l1 2v-2l-3-2Zm3 8v3h1q1-4-1-3Zm-58 16 2 6 1-3-3-3Zm63 4-1 3q-2 5 2 4l1-3q2-5-2-4Zm-23 1q-2 3 1 2l-1-2Zm26 6-2 2 2 1v-3Zm-33 7-1 3q-3-1-2 2l4-1v-4h-1Zm-40 13-1 3h1v-3Zm78 1-1 3 2 1-1-4ZM187 319h8v6q-3 1-1 3 1 3-1 4-3 1-2-2l-3-4-1-7Zm5 2q-1 3 2 2 1-3-2-2ZM218 319l1 7v9l4 11-2 3v2l3 2 2 2 3 7q-2 1 1 2l5 5 2 3 1 1q-3-1-2 3h2q-2 5 2 4l-1-8h1l3 13-1 3-2 1 1 3 4-1 2 11h-1v-2l-1 2-4 1h-19q-2 2-6 1-3-1-1-2 1-3-1-2l-3 2-1-1-3 3h-6v-2l-4-20v-6l4-2-1-3-5-3-3-20h1l2 3-1 4 2 1 2-3 4 10 4 3 4 1 2-11q-3-2-2-5-3 1-2-6l4-2-1-6 7-18Zm-5 18-1 3h1v-3Zm7 4-2 3h3l-1-3Zm-7 16q-3 4 1 3l-1-3Zm0 7q-2 3 1 2l-1-2Zm-10 2-1 2 2-1-1-1Zm1 2v3l4 1 4-2q1-3-1-2l-4 2v-1l-3-1Zm37 14-1 3h1v-3Zm-39 13-1 4h1v-4Zm9 4v2l2-1-2-1ZM442 325l2 1-2 36 1 1v9l-2-1-1-12 1-1v-10l-1-1v-13h2v-9Zm0 13-1 7h1v-7ZM477 325v4l-1 4h1q-1-3 3-2h2l2-2-1-2q1-3 5-2h4l3 1 2-1h2l7 1 2-1q4 7 5 18l-1 4 3 1 5 22-3-1q1 2-1 1v2l1 6-54 7v-2l-1 2-1-4 4-14 4-1-2-1 5-19h2q-2 5 2 4l1-3-3-2 2-5h-2v-6l3-9Zm32 8 1 2q1-3-1-2Zm-32 1-2 2 1 2 2-3-1-1Zm-5 23-3 5 3 1 1-3-1-3Zm41 0q-3 4 2 3l-1 2h2v-4l-3 1v-2Zm-46 11v3l2-1q1-3-2-2Zm-3 8-1 3h1v-3ZM192 334l-1 2 1 3 2-1q1 3-2 2v4h-1l-1-8 2-2ZM525 343l13 9q-1 2 3 1l7 8v5l-1 2-15 6v-2l-1 2q-4-4-3-13l1-3-1-3q2-2 0-3-4 1-2-4l-1-5Zm5 19q-2 3 1 2l-1-2ZM407 355l4 8v4l2-1 5 4-2 5 4 1h1l4 11-2 1 1 1-11 1h-2l-3 1h-11v-3q2 1 4-2l-1-9 5-18 3 2-1-6Zm-3 15-1 5 2-1-1-4Z"/><path fill="#86694F" stroke="#86694F" d="m255 3 2 1-5 1V4l3-1ZM259 3l6 1h-6V3ZM243 6l3 1-5 3 1-2q2 1 1-2ZM272 6l3 3-2-2-1-1ZM276 10l1 3h-1v-3ZM249 13l2 1 4-1 3 2h12l4-1 4 7q-2 1-1 6l1 2h-2v-8l-2-6-2 1h-14l-4-2-6 1v6l-1-6 2-2ZM278 14v4h-1l1-4ZM239 17v8l2 1 4 1 2-5v4l-1 2-8-1 1-10ZM388 24q5-1 6 2l-1-1q-6-1-8 2l1-2 2-1ZM255 25q3-1 4 2l-1 2h-4l3-1q1-3-1-2l-4 2 1 1q-3 1-2-3l4-1Z"/><path fill="#86694F" stroke="#86694F" d="M266 25h7v2q2 1 0 2-6 1-7-1v-3Zm2 1 1 2h4l-5-2ZM404 25l4 1 5 6-5-5q-5 1-4-2ZM381 27l2 1h-2v-1ZM254 31l4 2-1 2q-5 2-3-4ZM267 31l4 2-1 2q-5 1-3-4Zm1 1v2l2-1-2-1ZM414 33v5h-1l1-5ZM375 38q1 3 6 2l1-1h8l2 1 2 4-1-1-4-3-4 1-3-1-5 1v5h2l1 3-2 1-1-3-2 1q2-2 1-6l-1-4ZM263 40l5 3h-1l-3-1 1 3-2-2-2 2q1 3-4 1l-2-3q3-1 2 2h3l1-2h-3l5-3ZM269 43q3-1 2 2-3 1-2-2ZM413 43v3h-1l1-3ZM274 44v2l-2 1 2-3ZM395 45l3 7q3 1 1-3l1-3 4-1 3 5-1 4-3 3 4 3 2-3-1 2-1 2q-3 1-2-1-6-3 0-6v-7h-3l-3 7-4-2v-7Z"/><path fill="#86694F" stroke="#86694F" d="M384 46q5-1 7 2v2h-5l-2-4Zm3 1-1 2h3l-2-2ZM412 47v3h-1l1-3ZM244 50l-1 2q1 9 8 12l2 2h-1q-9-4-10-14l2-2ZM270 51l1 1-6 2 1 3q-2 1-1 7l-2 2h-2l3-3v-8l2-2 4-2ZM377 51l3 3v2l-2 1v4h-1V51ZM384 52l4 2-1 2-3-1v-3ZM411 53l-1 2v1l-1-1 2-2ZM227 55l-1 2 1-2ZM221 58l-1 2 1-2ZM216 63l-2 3 2-3ZM383 64l2 1h-2v-1ZM255 66l5 1h-5v-1ZM407 66l1 1-9 5 1-2 7-4ZM212 68l-1 2 1-2ZM384 70l4 3h-1l-3-3ZM392 72l5 1-7 1v-1l2-1ZM472 101q5-1 6 2l-1-1q-6 1-5-1ZM470 102l-1 2 1-2ZM461 105l-1 2 1-2ZM456 108l1 1-2 1 1-2ZM493 109l2 3-2-3ZM454 111v2l-1 3 3 2h-1q-3 0-3-4l2-3ZM197 116v5h-1l1-5ZM460 120l4 8 8 1 1 7-1 2q-3-1-2 2l4 3v1l-4-2-1-3q4-2 3-7-1-4-5-3h-2q-3 1-2-2l-4-5 1-2ZM453 121q3-1 2 2l1 3-3-1h2q1-3-2-2v-2ZM323 125l2 2h-3l-9 8h-3v-1h3l10-9ZM197 128v5h-1l1-5ZM453 129l2 2-3 1 1-3Z"/><path fill="#86694F" stroke="#86694F" d="m460 131 4 1h-4v-1ZM266 134l4 1h-4v-1ZM199 140l3 4-3-4ZM266 141l-1 2-2 1 1-2 2-1ZM494 141v4h-1l1-4ZM393 142v2l-2 1v-1q2 1 2-2ZM487 143l2 1-3 1 1-2ZM165 144l7 1h-7v-1ZM185 144l1 2-1-2ZM259 144l2 1q-3 1-2 8l3 5h-1l-2-3q-3-2-1-8l1-3ZM476 144q2 3 6 2l-2 12-1-5 2-4-4-3-1-2ZM163 145l-3 4 3-4ZM188 146l2 3-2-3ZM496 148l3 4-3-4ZM204 149v3h-1l1-3ZM194 150l2 3v9l-3 5 2 3-2 3h1v4l-3-1 1-2-3-1v-3q-3 4-10 3-2-3-6-2-3 2-2 8 3 1 1 7-3 5-11 5l3 2-1-1-5-2q10 1 13-5 1-7-2-10l3-5h5q1 3 7 2 6-2 9-7 4-4 2-12l-1-3Zm-1 19-1 1q-3-1-2 2l4-2-1-1ZM466 153l3 1h-3v-1ZM504 155l3 4-3-4ZM421 158l1 1-3 1v-1l2-1ZM136 160v3h-1l1-3ZM482 161q2 1 1 7h-1v-7ZM409 163l2 1h-2v-1ZM430 164l-2 3h-2l4-3ZM438 164l4 3-6 3-1-2 2 1v-2l1 1 1-2-1-2ZM394 165q2-1 1 2l-1-2ZM412 165l5 1v2l-5-2v-1ZM419 168q7 0 10 4h2l1-2 2 1-5 2-10-4v-1ZM485 172l2 3-2-3ZM516 173v4h-1l1-4ZM141 176l1 3h-1v-3ZM487 178l3 5-4-3 1-2ZM332 181q5-1 7 1 2 4 1 12-8 1-12-1l2-10 2-2Zm1 2-2 2 1 2-1 2 3 4 4-2-1-3 1-3q-1-3-5-2ZM140 182l1 3-2-1 1-2ZM492 183l1 2-1-2ZM155 185l1 2-1-2Z"/><path fill="#86694F" stroke="#86694F" d="m335 188 1 2q-3 1-1-2ZM497 195l4 5v2h-1v-2l-3-5ZM512 195l-2 3 2-3ZM508 199l-3 4 3-4ZM408 219q3-1 2 2l4 3 3 4-4-3q1-3-1-2l-4-4ZM404 220l2 1h-2v-1ZM398 221l4 1-3 1 2 2-3-4ZM232 225l-1 2q3 2 2 9l-4 6-6-8-2 1 1 1-7-1v2l-1-3h7v-2h3l8-7Zm-5 12q-1 3 3 2 1-3-3-2ZM393 226q3-1 2 2l9 9v1h-2l1-1-9-10-1-1ZM402 226l2 3-2-3ZM384 228h2l1 1h-2q-1 4 3 6l-4-3v-4ZM420 229l-1 2 1-2ZM405 231q2-1 1 2h3v1q-5 1-4-3ZM199 233q2-1 1 2l-1-2Z"/><path fill="#86694F" stroke="#86694F" d="m202 234 9 1 1 2q-1 3 2 4 3-1 2 2l2-1 4 2q5-1 7 1l2-1 2 2-1-2 4-1-1 2 1 1 3-2 3 5 15 4 20 4 14 1 1 1 27 1 1 1h27l1-1h17l1-1 17-1 18-4h5l25-7 20-9v6l-2 3-3-1q1 3-1 2l-21 9h-4l-3 2-14 3-3-1q1 3-1 2l-4-1q1 4-6 2l-6 2-23 2-3-1-2 2v69q7-1 10 2l4-1 28 5-1 10H260l2-1q-1-5 4-6l4-2 37-6 2 1 2-2h7v-68q0-2-6-1v-2l-14 1q1-3-3-2l-4 1-1-1h-7l-13-2 2-1-2-1-5 1-4-1 1-2-4 1-16-4 1-2-3 1-12-4q1-4-1-3l-4-2-3-1q1-3-2-2l-3 1-2-3-3-1q-2 3-3-1l-6-3 1-3ZM389 236l1 2-1-2Z"/><path fill="#86694F" stroke="#86694F" d="m219 237 6 5-1-1q-5-1-5-4ZM212 247l6 3 1 2 3-1-1 4-2-1q-2 3-4-1 1-3-1-2l-4-1 2-3ZM222 254l5 1 2-1-1 2v4l-2-3-4-1v-2ZM212 258l3 1q5-1 6 3v1h4q-1 3 3 2v4l1 5-1 2q-4 0-6-3l-4 1-1-1h-7v-2l-1 2-2-1-2 1-1-4 2-1q-1 4 2 3v-3h5l1 2 4-1q1 3-1 2v1q5-1 7 1 1-2 3 1l1-1q1-5-2-6l-11-3 2-1 1 1q1-4-2-3-2 3-7 2-2-4 3-3v-2ZM204 259l2 3q-5 1-2-3ZM205 275l4 6 8 2h2l2-2-3-1 1-2h9l4 3q1 2-1 1v2l-1-1h-9v5l-5 7-3 2-5 4 2 1h-1q-3-3-8-2l5-4q-1-3 2-2l3-2 4-7q-1-3-5-2l-8-4 3-4Zm19 5 2 2q1-3-2-2Zm4 0q-1 3 2 2 1-3-2-2Zm-11 4-2 5 1 1 3-2q1-5-2-4Zm-4 6-1 3q2 3 3 0 1-4-2-3Zm-6 5q1 4-1 3v1q4 0 6-3l-5-1Z"/><path fill="#86694F" stroke="#86694F" d="M208 277q4-1 3 2l-2 1q1-3-1-2v-1ZM199 280l-1 2 1-2ZM197 283l-1 2 1-2ZM193 289l-1 2 1-2ZM192 292l4 5-4-5ZM218 303l3 1h-3v-1ZM198 319l2 1h-2v-1ZM206 319l2 1h-2v-1ZM226 319l2 2v1l-1-2-1-1ZM240 319v4h-1l1-4ZM229 323l1 7h-1v-7ZM241 326v3h-1l1-3ZM231 331l1 7h-1v-7ZM242 332v4h-1l1-4ZM233 339l2 10h-1l-2-6 1-4ZM462 369l2 1-1 2-1-3ZM421 371l2 6h-1l-1-6ZM439 373q5-1 6 2v4l-3-1v2l-1-1 3-5q-9-1-14 4l1-2 8-3ZM455 375l6 3h-1l-5-2v-1ZM453 376l1 3h-2v2l-1-1 2-4ZM427 378l1 1-4 3 3-4ZM444 381v4l-1 6-1-5 1-2q-2-2 1-3ZM437 383l3 1-4 1 1-2ZM450 383l3 1h-2v2l-1-3ZM450 387v3h-1l1-3ZM449 391v3h-1l1-3ZM442 393v4h-1l1-4ZM441 398v4h-1l1-4ZM447 399v3h-1l1-3ZM446 403v4h-1l1-4ZM440 405v4h-1l1-4ZM198 407v3h-1l1-3ZM201 407l1 10q-4 2-3-2l-1-3h1l2 4v-3q-2-2 0-6ZM445 408v3h-1l1-3ZM439 411v5h-1l1-5ZM103 415l2 2h-1l-1-2ZM443 416v3h-1l1-3Z"/></svg>